<?xml version="1.0" encoding="UTF-8"?>
<!DOCTYPE svg PUBLIC "-//W3C//DTD SVG 1.1//EN" "http://www.w3.org/Graphics/SVG/1.1/DTD/svg11.dtd">
<svg xmlns="http://www.w3.org/2000/svg" version="1.1" width="553px" height="452px" style="shape-rendering:geometricPrecision; text-rendering:geometricPrecision; image-rendering:optimizeQuality; fill-rule:evenodd; clip-rule:evenodd" xmlns:xlink="http://www.w3.org/1999/xlink">
<g><path style="opacity:0.957" fill="#073b4b" d="M 291.5,346.5 C 291.611,345.883 291.944,345.383 292.5,345C 289.854,344.503 287.187,344.336 284.5,344.5C 339.26,337.043 376.093,307.376 395,255.5C 410.354,190.846 389.854,141.346 333.5,107C 279.388,82.6108 230.054,89.7775 185.5,128.5C 183.053,128.615 181.053,129.615 179.5,131.5C 199.828,108.327 225.495,94.4938 256.5,90C 314.029,84.848 357.862,106.681 388,155.5C 405.591,190.338 408.258,226.338 396,263.5C 376.618,310.609 341.784,338.276 291.5,346.5 Z"/></g>
<g><path style="opacity:1" fill="#093a48" d="M 304.5,98.5 C 296.112,97.1314 287.612,96.4648 279,96.5C 269.817,96.6917 260.65,97.1917 251.5,98C 243.012,99.6644 234.678,101.831 226.5,104.5C 245.852,95.9428 266.185,92.7761 287.5,95C 293.451,95.4098 299.118,96.5764 304.5,98.5 Z"/></g>
<g><path style="opacity:1" fill="#0f1a21" d="M 304.5,98.5 C 353.894,112.396 384.394,144.396 396,194.5C 396.912,199.464 397.412,204.464 397.5,209.5C 397.5,214.167 397.5,218.833 397.5,223.5C 395.735,213.196 394.569,202.53 394,191.5C 393.853,194.571 393.02,197.404 391.5,200C 391.957,200.414 392.291,200.914 392.5,201.5C 391.85,208.697 391.183,215.864 390.5,223C 391.584,225.825 392.751,225.992 394,223.5C 394.854,227.625 394.52,231.625 393,235.5C 392.156,231.789 391.156,228.123 390,224.5C 389.667,224.833 389.333,225.167 389,225.5C 386.928,222.846 385.261,223.18 384,226.5C 384.302,221.706 384.802,216.873 385.5,212C 385.275,209.472 384.942,206.972 384.5,204.5C 380.079,206.106 377.746,204.439 377.5,199.5C 374.944,199.132 372.944,199.966 371.5,202C 373.292,204.364 375.292,205.864 377.5,206.5C 376.667,208.167 375.833,209.833 375,211.5C 373.989,212.337 372.822,212.67 371.5,212.5C 374.24,210.415 374.073,208.748 371,207.5C 363.218,211.441 355.051,212.441 346.5,210.5C 342.972,210.882 339.639,211.882 336.5,213.5C 334.931,211.012 333.264,208.512 331.5,206C 327.497,202.596 323.164,201.929 318.5,204C 311.288,210.817 302.621,214.317 292.5,214.5C 289.151,214.108 285.817,213.608 282.5,213C 281.692,212.692 281.025,212.192 280.5,211.5C 283.751,207.52 284.584,203.186 283,198.5C 279.465,194.649 276.132,194.982 273,199.5C 271.856,207.174 267.356,211.341 259.5,212C 254.167,212.667 248.833,212.667 243.5,212C 241.862,209.867 241.029,207.367 241,204.5C 237.999,200.469 234.166,199.469 229.5,201.5C 225.087,200.985 222.754,202.985 222.5,207.5C 221.526,205.257 221.192,202.924 221.5,200.5C 219.633,200.045 217.8,199.378 216,198.5C 214.774,198.645 213.607,198.978 212.5,199.5C 211.882,196.189 210.882,193.022 209.5,190C 210.562,186.211 210.729,182.377 210,178.5C 207.62,176.099 205.12,176.099 202.5,178.5C 201.239,180.453 200.073,182.453 199,184.5C 198.637,189.951 197.804,195.284 196.5,200.5C 194.911,206.278 191.244,209.111 185.5,209C 183.623,206.749 182.123,204.249 181,201.5C 180.667,194.5 180.333,187.5 180,180.5C 179.577,179.044 178.744,178.544 177.5,179C 176.042,181.077 175.376,183.41 175.5,186C 175.73,194.073 177.063,201.906 179.5,209.5C 178.167,209.5 176.833,209.5 175.5,209.5C 173.53,201.617 172.197,193.617 171.5,185.5C 172.43,183.895 172.43,182.395 171.5,181C 174.014,178.933 173.848,177.433 171,176.5C 170.333,173.5 170.333,170.5 171,167.5C 171.182,170.226 171.682,172.893 172.5,175.5C 174.455,170.305 175.789,164.971 176.5,159.5C 177.675,159.719 178.675,159.386 179.5,158.5C 177.657,156.395 175.324,155.228 172.5,155C 173.747,153.506 173.747,152.006 172.5,150.5C 171.859,151.993 170.859,152.993 169.5,153.5C 179.219,136.946 192.219,123.446 208.5,113C 214.128,109.352 220.128,106.519 226.5,104.5C 234.678,101.831 243.012,99.6644 251.5,98C 260.65,97.1917 269.817,96.6917 279,96.5C 287.612,96.4648 296.112,97.1314 304.5,98.5 Z"/></g>
<g><path style="opacity:1" fill="#0f1921" d="M 179.5,209.5 C 181.713,212.211 184.546,213.877 188,214.5C 191.039,213.397 193.873,211.897 196.5,210C 198.543,206.747 200.71,203.58 203,200.5C 203.774,207.224 203.441,213.89 202,220.5C 199.466,228.318 194.3,231.985 186.5,231.5C 187.761,228.736 189.595,226.403 192,224.5C 192.483,223.552 192.649,222.552 192.5,221.5C 188.779,221.891 185.779,223.558 183.5,226.5C 181.822,227.747 180.489,229.414 179.5,231.5C 178.548,233.045 178.215,234.712 178.5,236.5C 175.402,236.413 175.068,236.913 177.5,238C 189.829,238.5 202.162,238.667 214.5,238.5C 214.263,239.791 214.596,240.791 215.5,241.5C 214.685,245.833 216.352,248.166 220.5,248.5C 220.67,249.822 220.337,250.989 219.5,252C 221.663,252.245 223.33,253.245 224.5,255C 221.574,255.218 218.74,255.718 216,256.5C 214.426,255.152 212.593,254.486 210.5,254.5C 207.23,255.055 203.896,255.222 200.5,255C 198.162,257.11 198.329,259.277 201,261.5C 203.562,260.913 206.228,260.579 209,260.5C 209.333,261.167 209.667,261.833 210,262.5C 212.66,261.275 215.327,261.608 218,263.5C 218.388,262.572 219.055,261.905 220,261.5C 224.59,261.584 229.257,262.251 234,263.5C 234.617,262.551 234.451,261.718 233.5,261C 234.448,260.517 235.448,260.351 236.5,260.5C 236.185,258.774 236.019,257.107 236,255.5C 237.135,255.727 238.302,256.06 239.5,256.5C 240.246,257.736 240.579,259.07 240.5,260.5C 244.111,260.249 247.444,259.249 250.5,257.5C 252.048,258.794 254.048,259.461 256.5,259.5C 258.5,259.333 260.5,259.167 262.5,259C 260.054,257.517 260.388,256.351 263.5,255.5C 264.538,260.055 266.705,260.722 270,257.5C 270.483,258.448 270.649,259.448 270.5,260.5C 282.543,259.625 294.543,259.625 306.5,260.5C 307.396,255.616 305.396,252.949 300.5,252.5C 296.614,252.628 292.78,252.628 289,252.5C 287.01,255.722 284.51,256.222 281.5,254C 282.672,253.581 283.672,252.915 284.5,252C 272.569,250.316 260.569,248.816 248.5,247.5C 244.349,247.413 240.349,248.08 236.5,249.5C 234.05,249.239 231.717,248.572 229.5,247.5C 226.882,247.395 224.216,247.561 221.5,248C 220.919,247.107 220.585,246.107 220.5,245C 222.6,240.55 226.267,238.717 231.5,239.5C 244.397,239.588 257.397,239.754 270.5,240C 272.927,246.457 277.593,248.79 284.5,247C 285.337,245.989 285.67,244.822 285.5,243.5C 291.026,245.524 296.693,245.858 302.5,244.5C 302.808,243.692 303.308,243.025 304,242.5C 306.667,244.833 309.333,247.167 312,249.5C 312.813,251.436 313.313,253.436 313.5,255.5C 312.167,255.5 310.833,255.5 309.5,255.5C 309.307,259.449 308.807,259.449 308,255.5C 307.28,257.112 307.446,258.612 308.5,260C 311.834,260.781 315.167,261.114 318.5,261C 320.694,259.447 321.86,257.281 322,254.5C 322.202,256.256 322.702,257.922 323.5,259.5C 324.738,255.689 325.404,255.689 325.5,259.5C 329.269,259.756 332.936,259.423 336.5,258.5C 337.472,259.751 338.139,259.418 338.5,257.5C 337.999,255.149 336.499,253.816 334,253.5C 331.88,254.459 329.713,254.626 327.5,254C 330.131,251.161 332.797,247.828 335.5,244C 335.146,242.374 335.146,240.541 335.5,238.5C 335.5,238.167 335.5,237.833 335.5,237.5C 348.134,238.795 360.801,238.795 373.5,237.5C 361.852,236.501 350.186,236.168 338.5,236.5C 338.334,231.489 338.501,226.489 339,221.5C 339.51,218.995 341.01,217.495 343.5,217C 347.514,216.501 351.514,216.667 355.5,217.5C 358.155,217.56 360.489,216.893 362.5,215.5C 365.574,214.698 368.574,213.698 371.5,212.5C 372.822,212.67 373.989,212.337 375,211.5C 375.833,209.833 376.667,208.167 377.5,206.5C 375.292,205.864 373.292,204.364 371.5,202C 372.944,199.966 374.944,199.132 377.5,199.5C 377.746,204.439 380.079,206.106 384.5,204.5C 384.942,206.972 385.275,209.472 385.5,212C 384.802,216.873 384.302,221.706 384,226.5C 385.261,223.18 386.928,222.846 389,225.5C 389.333,225.167 389.667,224.833 390,224.5C 391.156,228.123 392.156,231.789 393,235.5C 394.52,231.625 394.854,227.625 394,223.5C 392.751,225.992 391.584,225.825 390.5,223C 391.183,215.864 391.85,208.697 392.5,201.5C 392.291,200.914 391.957,200.414 391.5,200C 393.02,197.404 393.853,194.571 394,191.5C 394.569,202.53 395.735,213.196 397.5,223.5C 395.292,230.968 394.125,238.634 394,246.5C 391.673,251.979 390.173,257.646 389.5,263.5C 376.383,297.117 353.05,320.617 319.5,334C 315.278,335.638 310.945,336.805 306.5,337.5C 294.153,338.984 281.653,339.984 269,340.5C 264.18,339.88 259.347,339.38 254.5,339C 255.993,337.844 255.826,337.01 254,336.5C 249.178,337.651 244.345,337.651 239.5,336.5C 195.049,322.879 166.549,293.546 154,248.5C 146.806,216.668 150.806,186.335 166,157.5C 166.949,155.907 168.115,154.574 169.5,153.5C 170.859,152.993 171.859,151.993 172.5,150.5C 173.747,152.006 173.747,153.506 172.5,155C 175.324,155.228 177.657,156.395 179.5,158.5C 178.675,159.386 177.675,159.719 176.5,159.5C 175.789,164.971 174.455,170.305 172.5,175.5C 171.682,172.893 171.182,170.226 171,167.5C 170.333,170.5 170.333,173.5 171,176.5C 173.848,177.433 174.014,178.933 171.5,181C 172.43,182.395 172.43,183.895 171.5,185.5C 172.197,193.617 173.53,201.617 175.5,209.5C 176.833,209.5 178.167,209.5 179.5,209.5 Z M 371.5,212.5 C 368.574,213.698 365.574,214.698 362.5,215.5C 355.555,215.753 348.555,215.92 341.5,216C 340.167,216.667 338.833,217.333 337.5,218C 336.775,224.466 336.109,230.966 335.5,237.5C 335.5,237.833 335.5,238.167 335.5,238.5C 333.571,243.618 330.571,248.118 326.5,252C 317.189,255.174 313.189,252.007 314.5,242.5C 314.517,240.435 314.85,238.435 315.5,236.5C 319.114,229.656 323.947,223.656 330,218.5C 330.495,216.527 330.662,214.527 330.5,212.5C 327.033,212.446 324.366,213.946 322.5,217C 318.695,218.173 315.861,217.007 314,213.5C 311.031,214.737 308.197,216.07 305.5,217.5C 297.879,218.4 290.379,218.734 283,218.5C 283.306,220.823 283.972,223.156 285,225.5C 285.499,229.821 285.666,234.154 285.5,238.5C 284.081,242.878 281.081,244.711 276.5,244C 273.067,239.453 271.234,234.286 271,228.5C 270.501,223.511 270.334,218.511 270.5,213.5C 259.807,217.378 248.807,218.545 237.5,217C 235.557,218.555 233.39,219.722 231,220.5C 227.905,218.977 227.072,216.644 228.5,213.5C 230.547,211.985 232.881,211.151 235.5,211C 238.5,207 237.5,205 232.5,205C 229.129,208.236 226.629,212.069 225,216.5C 222.609,224.691 220.942,233.024 220,241.5C 218.51,242.728 217.01,242.728 215.5,241.5C 214.575,228.196 214.242,214.863 214.5,201.5C 215.833,201.5 217.167,201.5 218.5,201.5C 218.173,206.544 218.506,211.544 219.5,216.5C 222.099,210.955 225.433,205.955 229.5,201.5C 234.166,199.469 237.999,200.469 241,204.5C 241.029,207.367 241.862,209.867 243.5,212C 248.833,212.667 254.167,212.667 259.5,212C 267.356,211.341 271.856,207.174 273,199.5C 276.132,194.982 279.465,194.649 283,198.5C 284.584,203.186 283.751,207.52 280.5,211.5C 281.025,212.192 281.692,212.692 282.5,213C 285.817,213.608 289.151,214.108 292.5,214.5C 302.621,214.317 311.288,210.817 318.5,204C 323.164,201.929 327.497,202.596 331.5,206C 333.264,208.512 334.931,211.012 336.5,213.5C 339.639,211.882 342.972,210.882 346.5,210.5C 355.051,212.441 363.218,211.441 371,207.5C 374.073,208.748 374.24,210.415 371.5,212.5 Z M 336.5,257.5 C 334.972,257.483 334.472,256.816 335,255.5C 335.717,256.044 336.217,256.711 336.5,257.5 Z M 217.5,257.5 C 218.497,256.287 219.497,256.454 220.5,258C 219.423,258.47 218.423,258.303 217.5,257.5 Z M 250.5,257.5 C 251.077,256.227 251.743,256.227 252.5,257.5C 252.03,258.463 251.363,258.463 250.5,257.5 Z M 272.5,256.5 C 273.773,257.077 273.773,257.743 272.5,258.5C 271.537,258.03 271.537,257.363 272.5,256.5 Z M 277.5,257.5 C 278.363,256.537 279.03,256.537 279.5,257.5C 278.743,258.773 278.077,258.773 277.5,257.5 Z M 299.5,257.5 C 300.386,256.224 301.386,256.224 302.5,257.5C 301.575,258.562 300.575,258.562 299.5,257.5 Z"/></g>
<g><path style="opacity:0.286" fill="#002e42" d="M 277.5,202.5 C 278.844,204.185 278.677,205.852 277,207.5C 276.36,205.735 276.527,204.068 277.5,202.5 Z"/></g>
<g><path style="opacity:0.843" fill="#043a50" d="M 322.5,206.5 C 323.497,206.47 324.164,206.97 324.5,208C 323.708,209.96 322.375,211.46 320.5,212.5C 319.021,209.743 319.687,207.743 322.5,206.5 Z"/></g>
<g><path style="opacity:1" fill="#0c2532" d="M 229.5,201.5 C 225.433,205.955 222.099,210.955 219.5,216.5C 218.506,211.544 218.173,206.544 218.5,201.5C 217.167,201.5 215.833,201.5 214.5,201.5C 214.242,214.863 214.575,228.196 215.5,241.5C 214.596,240.791 214.263,239.791 214.5,238.5C 202.162,238.667 189.829,238.5 177.5,238C 175.068,236.913 175.402,236.413 178.5,236.5C 178.215,234.712 178.548,233.045 179.5,231.5C 180.489,229.414 181.822,227.747 183.5,226.5C 182.365,228.745 181.865,231.078 182,233.5C 182.374,234.416 182.874,235.25 183.5,236C 196.796,237.059 204.629,230.892 207,217.5C 208.16,205.154 208.826,192.82 209,180.5C 207.856,176.679 206.356,176.512 204.5,180C 203.038,187.404 200.372,194.238 196.5,200.5C 197.804,195.284 198.637,189.951 199,184.5C 200.073,182.453 201.239,180.453 202.5,178.5C 205.12,176.099 207.62,176.099 210,178.5C 210.729,182.377 210.562,186.211 209.5,190C 210.882,193.022 211.882,196.189 212.5,199.5C 213.607,198.978 214.774,198.645 216,198.5C 217.8,199.378 219.633,200.045 221.5,200.5C 221.192,202.924 221.526,205.257 222.5,207.5C 222.754,202.985 225.087,200.985 229.5,201.5 Z"/></g>
<g><path style="opacity:1" fill="#092f3f" d="M 275.5,217.5 C 277.173,218.343 278.34,219.676 279,221.5C 280.087,224.936 280.921,228.436 281.5,232C 280.11,240.416 278.276,240.582 276,232.5C 275.039,227.423 274.872,222.423 275.5,217.5 Z"/></g>
<g><path style="opacity:1" fill="#0e1e27" d="M 315.5,236.5 C 305.833,236.5 296.167,236.5 286.5,236.5C 286.5,231.167 286.5,225.833 286.5,220.5C 293.222,221.089 299.556,220.089 305.5,217.5C 308.197,216.07 311.031,214.737 314,213.5C 315.861,217.007 318.695,218.173 322.5,217C 324.366,213.946 327.033,212.446 330.5,212.5C 330.662,214.527 330.495,216.527 330,218.5C 323.947,223.656 319.114,229.656 315.5,236.5 Z"/></g>
<g><path style="opacity:0.375" fill="#1d404c" d="M 305.5,217.5 C 299.556,220.089 293.222,221.089 286.5,220.5C 286.5,225.833 286.5,231.167 286.5,236.5C 296.167,236.5 305.833,236.5 315.5,236.5C 314.85,238.435 314.517,240.435 314.5,242.5C 313.549,241.081 313.216,239.415 313.5,237.5C 304.083,237.195 294.75,237.528 285.5,238.5C 285.666,234.154 285.499,229.821 285,225.5C 283.972,223.156 283.306,220.823 283,218.5C 290.379,218.734 297.879,218.4 305.5,217.5 Z"/></g>
<g><path style="opacity:0.609" fill="#183742" d="M 362.5,215.5 C 360.489,216.893 358.155,217.56 355.5,217.5C 351.514,216.667 347.514,216.501 343.5,217C 341.01,217.495 339.51,218.995 339,221.5C 338.501,226.489 338.334,231.489 338.5,236.5C 350.186,236.168 361.852,236.501 373.5,237.5C 360.801,238.795 348.134,238.795 335.5,237.5C 336.109,230.966 336.775,224.466 337.5,218C 338.833,217.333 340.167,216.667 341.5,216C 348.555,215.92 355.555,215.753 362.5,215.5 Z"/></g>
<g><path style="opacity:1" fill="#0b2733" d="M 329.5,224.5 C 330.5,224.5 331.5,224.5 332.5,224.5C 332.877,234.729 329.211,243.063 321.5,249.5C 318.666,247.559 317.832,244.893 319,241.5C 321.483,235.201 324.983,229.534 329.5,224.5 Z"/></g>
<g><path style="opacity:1" fill="#0f1f28" d="M 285.5,238.5 C 294.75,237.528 304.083,237.195 313.5,237.5C 313.216,239.415 313.549,241.081 314.5,242.5C 313.189,252.007 317.189,255.174 326.5,252C 330.571,248.118 333.571,243.618 335.5,238.5C 335.146,240.541 335.146,242.374 335.5,244C 332.797,247.828 330.131,251.161 327.5,254C 329.713,254.626 331.88,254.459 334,253.5C 336.499,253.816 337.999,255.149 338.5,257.5C 338.139,259.418 337.472,259.751 336.5,258.5C 332.936,259.423 329.269,259.756 325.5,259.5C 325.404,255.689 324.738,255.689 323.5,259.5C 322.702,257.922 322.202,256.256 322,254.5C 321.86,257.281 320.694,259.447 318.5,261C 315.167,261.114 311.834,260.781 308.5,260C 307.446,258.612 307.28,257.112 308,255.5C 308.807,259.449 309.307,259.449 309.5,255.5C 310.833,255.5 312.167,255.5 313.5,255.5C 313.313,253.436 312.813,251.436 312,249.5C 309.333,247.167 306.667,244.833 304,242.5C 303.308,243.025 302.808,243.692 302.5,244.5C 296.693,245.858 291.026,245.524 285.5,243.5C 285.67,244.822 285.337,245.989 284.5,247C 277.593,248.79 272.927,246.457 270.5,240C 257.397,239.754 244.397,239.588 231.5,239.5C 226.267,238.717 222.6,240.55 220.5,245C 220.585,246.107 220.919,247.107 221.5,248C 224.216,247.561 226.882,247.395 229.5,247.5C 231.717,248.572 234.05,249.239 236.5,249.5C 240.349,248.08 244.349,247.413 248.5,247.5C 260.569,248.816 272.569,250.316 284.5,252C 283.672,252.915 282.672,253.581 281.5,254C 284.51,256.222 287.01,255.722 289,252.5C 292.78,252.628 296.614,252.628 300.5,252.5C 305.396,252.949 307.396,255.616 306.5,260.5C 294.543,259.625 282.543,259.625 270.5,260.5C 270.649,259.448 270.483,258.448 270,257.5C 266.705,260.722 264.538,260.055 263.5,255.5C 260.388,256.351 260.054,257.517 262.5,259C 260.5,259.167 258.5,259.333 256.5,259.5C 254.048,259.461 252.048,258.794 250.5,257.5C 247.444,259.249 244.111,260.249 240.5,260.5C 240.579,259.07 240.246,257.736 239.5,256.5C 238.302,256.06 237.135,255.727 236,255.5C 236.019,257.107 236.185,258.774 236.5,260.5C 235.448,260.351 234.448,260.517 233.5,261C 234.451,261.718 234.617,262.551 234,263.5C 229.257,262.251 224.59,261.584 220,261.5C 219.055,261.905 218.388,262.572 218,263.5C 215.327,261.608 212.66,261.275 210,262.5C 209.667,261.833 209.333,261.167 209,260.5C 206.228,260.579 203.562,260.913 201,261.5C 198.329,259.277 198.162,257.11 200.5,255C 203.896,255.222 207.23,255.055 210.5,254.5C 212.593,254.486 214.426,255.152 216,256.5C 218.74,255.718 221.574,255.218 224.5,255C 223.33,253.245 221.663,252.245 219.5,252C 220.337,250.989 220.67,249.822 220.5,248.5C 216.352,248.166 214.685,245.833 215.5,241.5C 217.01,242.728 218.51,242.728 220,241.5C 220.942,233.024 222.609,224.691 225,216.5C 226.629,212.069 229.129,208.236 232.5,205C 237.5,205 238.5,207 235.5,211C 232.881,211.151 230.547,211.985 228.5,213.5C 227.072,216.644 227.905,218.977 231,220.5C 233.39,219.722 235.557,218.555 237.5,217C 248.807,218.545 259.807,217.378 270.5,213.5C 270.334,218.511 270.501,223.511 271,228.5C 271.234,234.286 273.067,239.453 276.5,244C 281.081,244.711 284.081,242.878 285.5,238.5 Z M 336.5,257.5 C 336.217,256.711 335.717,256.044 335,255.5C 334.472,256.816 334.972,257.483 336.5,257.5 Z M 217.5,257.5 C 218.423,258.303 219.423,258.47 220.5,258C 219.497,256.454 218.497,256.287 217.5,257.5 Z M 250.5,257.5 C 251.363,258.463 252.03,258.463 252.5,257.5C 251.743,256.227 251.077,256.227 250.5,257.5 Z M 272.5,256.5 C 271.537,257.363 271.537,258.03 272.5,258.5C 273.773,257.743 273.773,257.077 272.5,256.5 Z M 277.5,257.5 C 278.077,258.773 278.743,258.773 279.5,257.5C 279.03,256.537 278.363,256.537 277.5,257.5 Z M 299.5,257.5 C 300.575,258.562 301.575,258.562 302.5,257.5C 301.386,256.224 300.386,256.224 299.5,257.5 Z"/></g>
<g><path style="opacity:0.986" fill="#094451" d="M 397.5,209.5 C 399.574,228.148 396.908,246.148 389.5,263.5C 390.173,257.646 391.673,251.979 394,246.5C 394.125,238.634 395.292,230.968 397.5,223.5C 397.5,218.833 397.5,214.167 397.5,209.5 Z"/></g>
<g><path style="opacity:0.898" fill="#073144" d="M 185.5,128.5 C 148.372,169.648 139.539,216.314 159,268.5C 184.764,319.981 226.598,345.314 284.5,344.5C 287.187,344.336 289.854,344.503 292.5,345C 291.944,345.383 291.611,345.883 291.5,346.5C 228.2,351.439 182.7,325.439 155,268.5C 138.468,225.483 142.468,184.483 167,145.5C 170.48,140.196 174.647,135.529 179.5,131.5C 181.053,129.615 183.053,128.615 185.5,128.5 Z"/></g>
<g><path style="opacity:0.993" fill="#08313f" d="M 239.5,336.5 C 244.345,337.651 249.178,337.651 254,336.5C 255.826,337.01 255.993,337.844 254.5,339C 259.347,339.38 264.18,339.88 269,340.5C 281.653,339.984 294.153,338.984 306.5,337.5C 284.063,344.337 261.73,344.004 239.5,336.5 Z"/></g>
</svg>
