<?xml version="1.0" encoding="UTF-8"?>
<!DOCTYPE svg PUBLIC "-//W3C//DTD SVG 1.1//EN" "http://www.w3.org/Graphics/SVG/1.1/DTD/svg11.dtd">
<svg xmlns="http://www.w3.org/2000/svg" version="1.1" width="500px" height="500px" style="shape-rendering:geometricPrecision; text-rendering:geometricPrecision; image-rendering:optimizeQuality; fill-rule:evenodd; clip-rule:evenodd" xmlns:xlink="http://www.w3.org/1999/xlink">
<g><path style="opacity:1" fill="#000000" d="M -0.5,-0.5 C 166.167,-0.5 332.833,-0.5 499.5,-0.5C 499.5,166.167 499.5,332.833 499.5,499.5C 332.833,499.5 166.167,499.5 -0.5,499.5C -0.5,332.833 -0.5,166.167 -0.5,-0.5 Z"/></g>
<g><path style="opacity:1" fill="#010100" d="M 253.5,111.5 C 268.893,112.579 283.893,115.579 298.5,120.5C 300.426,122.293 302.759,123.293 305.5,123.5C 308.515,125.674 311.849,127.341 315.5,128.5C 319.323,131.916 323.657,134.582 328.5,136.5C 329.262,138.262 330.596,139.262 332.5,139.5C 333.262,141.262 334.596,142.262 336.5,142.5C 337.911,144.914 339.911,146.581 342.5,147.5C 352.613,157.938 361.947,168.938 370.5,180.5C 370.75,182.674 371.75,184.341 373.5,185.5C 374.674,186.514 375.34,187.847 375.5,189.5C 376.659,193.151 378.326,196.485 380.5,199.5C 389.117,220.977 393.117,243.311 392.5,266.5C 390.888,283.954 386.888,300.954 380.5,317.5C 379.341,321.151 377.674,324.485 375.5,327.5C 373.75,328.659 372.75,330.326 372.5,332.5C 370.75,333.659 369.75,335.326 369.5,337.5C 367.738,338.262 366.738,339.596 366.5,341.5C 365.094,341.973 364.427,342.973 364.5,344.5C 362.413,345.585 361.08,347.251 360.5,349.5C 360.5,350.833 359.833,351.5 358.5,351.5C 353.167,356.167 348.167,361.167 343.5,366.5C 341.251,367.08 339.585,368.413 338.5,370.5C 336.973,370.427 335.973,371.094 335.5,372.5C 325.054,379.042 313.721,383.542 301.5,386C 292.658,386.916 283.992,386.083 275.5,383.5C 270.525,380.875 265.525,378.208 260.5,375.5C 252.525,368.529 244.525,361.529 236.5,354.5C 234.1,351.097 231.1,348.43 227.5,346.5C 222.136,341.653 215.802,338.653 208.5,337.5C 205.456,335.989 202.122,335.322 198.5,335.5C 190.344,334.343 182.01,334.177 173.5,335C 172.263,335.232 171.263,335.732 170.5,336.5C 168.283,335.631 165.95,335.298 163.5,335.5C 166.305,334.681 169.305,334.181 172.5,334C 163.506,334.039 155.172,331.873 147.5,327.5C 144.833,325.167 142.167,322.833 139.5,320.5C 137.138,317.808 134.804,315.141 132.5,312.5C 128.466,306.144 124.466,299.811 120.5,293.5C 117.792,286.766 115.126,280.099 112.5,273.5C 110.529,265.613 109.195,257.613 108.5,249.5C 107.732,229.441 111.065,210.108 118.5,191.5C 118.992,189.181 119.992,187.181 121.5,185.5C 122.674,184.486 123.34,183.153 123.5,181.5C 126,178.506 128,175.173 129.5,171.5C 130.906,171.027 131.573,170.027 131.5,168.5C 133.262,167.738 134.262,166.404 134.5,164.5C 137.243,162.761 139.243,160.427 140.5,157.5C 145.5,153.167 150.167,148.5 154.5,143.5C 156.749,142.92 158.415,141.587 159.5,139.5C 165.777,135.885 171.777,131.885 177.5,127.5C 180.515,125.326 183.849,123.659 187.5,122.5C 198.259,118.637 209.259,115.471 220.5,113C 231.464,111.752 242.464,111.252 253.5,111.5 Z"/></g>
<g><path style="opacity:1" fill="#855c24" d="M 255.5,110.5 C 254.508,110.328 253.842,110.662 253.5,111.5C 242.464,111.252 231.464,111.752 220.5,113C 209.259,115.471 198.259,118.637 187.5,122.5C 209.028,111.801 231.694,107.801 255.5,110.5 Z"/></g>
<g><path style="opacity:1" fill="#a68340" d="M 253.5,111.5 C 253.842,110.662 254.508,110.328 255.5,110.5C 270.644,110.871 284.977,114.205 298.5,120.5C 283.893,115.579 268.893,112.579 253.5,111.5 Z"/></g>
<g><path style="opacity:1" fill="#9b8244" d="M 298.5,120.5 C 301.241,120.707 303.574,121.707 305.5,123.5C 302.759,123.293 300.426,122.293 298.5,120.5 Z"/></g>
<g><path style="opacity:1" fill="#b3944b" d="M 305.5,123.5 C 309.42,124.127 312.753,125.793 315.5,128.5C 311.849,127.341 308.515,125.674 305.5,123.5 Z"/></g>
<g><path style="opacity:1" fill="#d0b059" d="M 251.5,130.5 C 258.738,130.568 260.904,133.901 258,140.5C 253.065,143.292 249.565,141.958 247.5,136.5C 247.866,133.744 249.2,131.744 251.5,130.5 Z"/></g>
<g><path style="opacity:1" fill="#a98540" d="M 315.5,128.5 C 319.423,129.795 323.09,131.628 326.5,134C 327.381,134.708 328.047,135.542 328.5,136.5C 323.657,134.582 319.323,131.916 315.5,128.5 Z"/></g>
<g><path style="opacity:1" fill="#e0bd60" d="M 226.5,131.5 C 228.827,131.247 230.827,131.914 232.5,133.5C 224.424,134.33 224.591,135.663 233,137.5C 233.664,142.496 231.498,144.33 226.5,143C 224.441,141.815 224.274,140.648 226,139.5C 227.758,141.769 229.592,141.935 231.5,140C 229.447,138.92 227.28,138.086 225,137.5C 224.257,135.126 224.757,133.126 226.5,131.5 Z"/></g>
<g><path style="opacity:1" fill="#0f0c05" d="M 251.5,133.5 C 253.167,133.5 254.833,133.5 256.5,133.5C 257.322,139.209 255.489,140.543 251,137.5C 250.421,136.072 250.588,134.738 251.5,133.5 Z"/></g>
<g><path style="opacity:1" fill="#906023" d="M 177.5,127.5 C 171.777,131.885 165.777,135.885 159.5,139.5C 164.679,134.331 170.679,130.331 177.5,127.5 Z"/></g>
<g><path style="opacity:1" fill="#dbb95e" d="M 275.5,134.5 C 276.5,134.5 277.5,134.5 278.5,134.5C 279.221,141.565 280.221,141.898 281.5,135.5C 282.675,135.281 283.675,135.614 284.5,136.5C 283.654,139.548 282.654,142.548 281.5,145.5C 280.675,146.386 279.675,146.719 278.5,146.5C 278.477,144.073 277.977,141.74 277,139.5C 276.457,141.631 275.624,143.631 274.5,145.5C 273.667,141.792 274,138.126 275.5,134.5 Z"/></g>
<g><path style="opacity:1" fill="#a37c39" d="M 328.5,136.5 C 330.404,136.738 331.738,137.738 332.5,139.5C 330.596,139.262 329.262,138.262 328.5,136.5 Z"/></g>
<g><path style="opacity:1" fill="#dfbc60" d="M 204.5,136.5 C 209.182,136.875 210.516,139.208 208.5,143.5C 209.737,144.281 210.737,145.281 211.5,146.5C 209.741,147.754 208.241,147.421 207,145.5C 206.716,147.886 205.716,148.552 204,147.5C 202.648,144.28 201.814,140.947 201.5,137.5C 202.791,137.737 203.791,137.404 204.5,136.5 Z"/></g>
<g><path style="opacity:1" fill="#131008" d="M 204.5,139.5 C 206.465,139.948 206.798,140.948 205.5,142.5C 204.614,141.675 204.281,140.675 204.5,139.5 Z"/></g>
<g><path style="opacity:1" fill="#9f7735" d="M 332.5,139.5 C 334.404,139.738 335.738,140.738 336.5,142.5C 334.596,142.262 333.262,141.262 332.5,139.5 Z"/></g>
<g><path style="opacity:1" fill="#946425" d="M 159.5,139.5 C 158.415,141.587 156.749,142.92 154.5,143.5C 155.585,141.413 157.251,140.08 159.5,139.5 Z"/></g>
<g><path style="opacity:1" fill="#9c7130" d="M 336.5,142.5 C 339.089,143.419 341.089,145.086 342.5,147.5C 339.911,146.581 337.911,144.914 336.5,142.5 Z"/></g>
<g><path style="opacity:1" fill="#d7b65c" d="M 302.5,143.5 C 304.484,143.484 305.484,144.484 305.5,146.5C 304.996,149.865 304.329,153.198 303.5,156.5C 302.148,155.482 301.148,154.149 300.5,152.5C 298.49,152.174 296.49,151.841 294.5,151.5C 297.521,149.146 300.188,146.479 302.5,143.5 Z"/></g>
<g><path style="opacity:1" fill="#ddbb5f" d="M 184.5,145.5 C 185.376,145.369 186.043,145.702 186.5,146.5C 185.737,147.719 184.737,148.719 183.5,149.5C 185.216,149.997 186.883,150.331 188.5,150.5C 187.833,151.5 187.167,152.5 186.5,153.5C 188.117,153.669 189.784,154.003 191.5,154.5C 189.807,156.027 187.973,157.36 186,158.5C 184.034,155.399 182.2,152.232 180.5,149C 181.686,147.588 183.019,146.421 184.5,145.5 Z"/></g>
<g><path style="opacity:1" fill="#9c6b2a" d="M 154.5,143.5 C 150.167,148.5 145.5,153.167 140.5,157.5C 144.167,151.833 148.833,147.167 154.5,143.5 Z"/></g>
<g><path style="opacity:1" fill="#925e20" d="M 342.5,147.5 C 352.187,154.688 360.353,163.355 367,173.5C 368.705,175.577 369.872,177.91 370.5,180.5C 361.947,168.938 352.613,157.938 342.5,147.5 Z"/></g>
<g><path style="opacity:1" fill="#1f1b0e" d="M 301.5,147.5 C 302.776,148.386 302.776,149.386 301.5,150.5C 300.438,149.575 300.438,148.575 301.5,147.5 Z"/></g>
<g><path style="opacity:1" fill="#dcba5f" d="M 321.5,155.5 C 322.756,155.461 323.756,155.961 324.5,157C 322.47,158.896 320.803,161.063 319.5,163.5C 320.167,164.5 320.833,165.5 321.5,166.5C 319.14,167.172 317.14,166.339 315.5,164C 317.72,161.287 319.72,158.454 321.5,155.5 Z"/></g>
<g><path style="opacity:1" fill="#d6b55c" d="M 164.5,158.5 C 166.722,158.178 168.556,158.845 170,160.5C 169.115,163.872 168.615,167.205 168.5,170.5C 166.177,167.874 163.843,165.207 161.5,162.5C 162.524,161.148 163.524,159.815 164.5,158.5 Z"/></g>
<g><path style="opacity:1" fill="#805b26" d="M 140.5,157.5 C 139.243,160.427 137.243,162.761 134.5,164.5C 135.757,161.573 137.757,159.239 140.5,157.5 Z"/></g>
<g><path style="opacity:1" fill="#1c180f" d="M 164.5,162.5 C 165.209,161.596 166.209,161.263 167.5,161.5C 167.306,165.005 166.306,165.338 164.5,162.5 Z"/></g>
<g><path style="opacity:1" fill="#936a2d" d="M 134.5,164.5 C 134.262,166.404 133.262,167.738 131.5,168.5C 131.738,166.596 132.738,165.262 134.5,164.5 Z"/></g>
<g><path style="opacity:1" fill="#986f30" d="M 131.5,168.5 C 131.573,170.027 130.906,171.027 129.5,171.5C 129.427,169.973 130.094,168.973 131.5,168.5 Z"/></g>
<g><path style="opacity:1" fill="#936d30" d="M 129.5,171.5 C 128,175.173 126,178.506 123.5,181.5C 124.498,177.495 126.498,174.161 129.5,171.5 Z"/></g>
<g><path style="opacity:1" fill="#925212" d="M 370.5,180.5 C 372.25,181.659 373.25,183.326 373.5,185.5C 371.75,184.341 370.75,182.674 370.5,180.5 Z"/></g>
<g><path style="opacity:1" fill="#9c7736" d="M 123.5,181.5 C 123.34,183.153 122.674,184.486 121.5,185.5C 121.229,183.62 121.896,182.287 123.5,181.5 Z"/></g>
<g><path style="opacity:1" fill="#e2c061" d="M 349.5,184.5 C 352.915,185.364 354.248,187.364 353.5,190.5C 352.281,189.737 351.281,188.737 350.5,187.5C 350.003,189.216 349.669,190.883 349.5,192.5C 348.5,191.833 347.5,191.167 346.5,190.5C 345.5,191.167 344.5,191.833 343.5,192.5C 342.167,191.5 342.167,190.5 343.5,189.5C 345.571,187.815 347.571,186.148 349.5,184.5 Z"/></g>
<g><path style="opacity:1" fill="#89561b" d="M 375.5,189.5 C 378.207,192.247 379.873,195.58 380.5,199.5C 378.326,196.485 376.659,193.151 375.5,189.5 Z"/></g>
<g><path style="opacity:1" fill="#dab85e" d="M 137.5,189.5 C 138.873,189.343 140.207,189.51 141.5,190C 142.924,192.218 144.924,193.718 147.5,194.5C 146.619,195.971 145.286,196.804 143.5,197C 144.731,198.183 144.731,199.349 143.5,200.5C 140.341,198.501 137.341,196.335 134.5,194C 135.315,192.357 136.315,190.857 137.5,189.5 Z"/></g>
<g><path style="opacity:1" fill="#120f07" d="M 138.5,191.5 C 140.465,191.948 140.798,192.948 139.5,194.5C 137.481,193.867 137.147,192.867 138.5,191.5 Z"/></g>
<g><path style="opacity:1" fill="#aa8b46" d="M 118.5,191.5 C 111.065,210.108 107.732,229.441 108.5,249.5C 107.833,244.167 107.167,238.833 106.5,233.5C 107.901,218.646 111.901,204.646 118.5,191.5 Z"/></g>
<g><path style="opacity:1" fill="#d8b75d" d="M 361.5,203.5 C 363.465,203.948 363.798,204.948 362.5,206.5C 359.833,207.833 357.167,209.167 354.5,210.5C 353.692,210.192 353.025,209.692 352.5,209C 355.564,207.141 358.564,205.308 361.5,203.5 Z"/></g>
<g><path style="opacity:1" fill="#dab95e" d="M 126.5,208.5 C 130.008,209.504 133.174,211.171 136,213.5C 136.783,217.229 135.283,219.563 131.5,220.5C 128.934,219.632 126.434,218.632 124,217.5C 123.409,216.517 123.743,215.85 125,215.5C 127.724,216.687 130.557,217.353 133.5,217.5C 133.649,216.448 133.483,215.448 133,214.5C 131.247,213.373 129.413,212.373 127.5,211.5C 126.614,210.675 126.281,209.675 126.5,208.5 Z"/></g>
<g><path style="opacity:1" fill="#6e5b2b" d="M 204.5,225.5 C 201.941,225.198 199.607,225.532 197.5,226.5C 196.527,226.013 195.527,225.513 194.5,225C 198.61,224.194 201.943,224.36 204.5,225.5 Z"/></g>
<g><path style="opacity:1" fill="#725f2c" d="M 222.5,226.5 C 221.167,225.167 219.833,225.167 218.5,226.5C 214.771,224.977 215.271,224.311 220,224.5C 221.5,224.667 223,224.833 224.5,225C 223.956,225.717 223.289,226.217 222.5,226.5 Z"/></g>
<g><path style="opacity:1" fill="#615126" d="M 247.5,225.5 C 245.901,225.232 244.568,225.566 243.5,226.5C 240.833,226.5 238.167,226.5 235.5,226.5C 234.877,233.255 235.544,239.588 237.5,245.5C 237.833,245.5 238.167,245.5 238.5,245.5C 238.158,246.338 237.492,246.672 236.5,246.5C 234.539,239.913 233.872,232.913 234.5,225.5C 232.265,225.205 230.265,225.539 228.5,226.5C 227.711,226.217 227.044,225.717 226.5,225C 233.679,224.179 240.679,224.345 247.5,225.5 Z"/></g>
<g><path style="opacity:1" fill="#725f2c" d="M 284.5,225.5 C 281.941,225.198 279.607,225.532 277.5,226.5C 273.833,226.5 270.167,226.5 266.5,226.5C 266.167,226.5 265.833,226.5 265.5,226.5C 263.5,225.167 261.5,225.167 259.5,226.5C 258.711,226.217 258.044,225.717 257.5,225C 266.676,224.176 275.676,224.343 284.5,225.5 Z"/></g>
<g><path style="opacity:1" fill="#e5bf5a" d="M 204.5,225.5 C 205.919,230.346 207.919,235.013 210.5,239.5C 210.842,240.338 211.508,240.672 212.5,240.5C 212.334,246.509 212.501,252.509 213,258.5C 213.5,259.667 214.333,260.5 215.5,261C 211.5,261.667 207.5,261.667 203.5,261C 205.061,260.682 206.228,259.849 207,258.5C 207.667,253.5 207.667,248.5 207,243.5C 203.821,237.806 200.655,232.139 197.5,226.5C 199.607,225.532 201.941,225.198 204.5,225.5 Z"/></g>
<g><path style="opacity:1" fill="#e7c05b" d="M 236.5,246.5 C 234.494,250.198 233.994,254.198 235,258.5C 235.5,259.667 236.333,260.5 237.5,261C 233.833,261.667 230.167,261.667 226.5,261C 227.667,260.5 228.5,259.667 229,258.5C 229.808,247.757 229.642,237.09 228.5,226.5C 230.265,225.539 232.265,225.205 234.5,225.5C 233.872,232.913 234.539,239.913 236.5,246.5 Z"/></g>
<g><path style="opacity:1" fill="#dcb756" d="M 243.5,226.5 C 244.568,225.566 245.901,225.232 247.5,225.5C 254.387,225.553 256.887,228.887 255,235.5C 250.354,240.24 244.854,243.573 238.5,245.5C 238.167,245.5 237.833,245.5 237.5,245.5C 240.079,242.865 243.079,240.699 246.5,239C 252.641,232.847 251.641,228.68 243.5,226.5 Z"/></g>
<g><path style="opacity:1" fill="#e5be5a" d="M 265.5,226.5 C 265.334,232.176 265.501,237.843 266,243.5C 266.717,242.956 267.217,242.289 267.5,241.5C 271.33,240.047 274.997,240.38 278.5,242.5C 280.029,242.471 281.196,241.804 282,240.5C 282.184,244.157 280.351,246.157 276.5,246.5C 273.278,245.031 269.944,244.531 266.5,245C 265.368,249.413 265.201,253.913 266,258.5C 266.5,259.667 267.333,260.5 268.5,261C 264.833,261.667 261.167,261.667 257.5,261C 258.667,260.5 259.5,259.667 260,258.5C 260.808,247.757 260.642,237.09 259.5,226.5C 261.5,225.167 263.5,225.167 265.5,226.5 Z"/></g>
<g><path style="opacity:1" fill="#d2af52" d="M 277.5,226.5 C 279.607,225.532 281.941,225.198 284.5,225.5C 286.088,227.527 286.588,229.861 286,232.5C 284.149,229.154 281.316,227.154 277.5,226.5 Z"/></g>
<g><path style="opacity:1" fill="#040301" d="M 243.5,226.5 C 251.641,228.68 252.641,232.847 246.5,239C 243.079,240.699 240.079,242.865 237.5,245.5C 235.544,239.588 234.877,233.255 235.5,226.5C 238.167,226.5 240.833,226.5 243.5,226.5 Z"/></g>
<g><path style="opacity:1" fill="#372d15" d="M 265.5,226.5 C 265.833,226.5 266.167,226.5 266.5,226.5C 266.179,231.695 266.513,236.695 267.5,241.5C 267.217,242.289 266.717,242.956 266,243.5C 265.501,237.843 265.334,232.176 265.5,226.5 Z"/></g>
<g><path style="opacity:1" fill="#d1b15a" d="M 366.5,221.5 C 367.833,221.5 369.167,221.5 370.5,221.5C 370.256,224.263 368.923,226.429 366.5,228C 368.425,227.865 370.425,227.698 372.5,227.5C 372.5,228.5 372.5,229.5 372.5,230.5C 368.5,231.167 364.5,231.833 360.5,232.5C 361.468,229.956 363.135,227.789 365.5,226C 363.765,225.349 362.098,225.515 360.5,226.5C 359.614,225.675 359.281,224.675 359.5,223.5C 362.067,223.279 364.401,222.612 366.5,221.5 Z"/></g>
<g><path style="opacity:1" fill="#a98c42" d="M 222.5,226.5 C 219.167,231.167 215.833,235.833 212.5,240.5C 211.508,240.672 210.842,240.338 210.5,239.5C 214.773,236.212 217.44,231.879 218.5,226.5C 219.833,225.167 221.167,225.167 222.5,226.5 Z"/></g>
<g><path style="opacity:1" fill="#a6823e" d="M 380.5,199.5 C 390.843,220.873 395.177,243.539 393.5,267.5C 392.833,267.5 392.5,267.167 392.5,266.5C 393.117,243.311 389.117,220.977 380.5,199.5 Z"/></g>
<g><path style="opacity:1" fill="#deb957" d="M 300.5,225.5 C 304.514,225.334 308.514,225.501 312.5,226C 315.657,226.742 318.323,228.242 320.5,230.5C 319.917,232.002 319.084,233.335 318,234.5C 312.841,226.56 306.007,224.726 297.5,229C 292.394,236.617 292.227,244.45 297,252.5C 302.233,258.979 308.566,260.645 316,257.5C 316.667,253.167 316.667,248.833 316,244.5C 315.5,244 315,243.5 314.5,243C 317.5,242.333 320.5,242.333 323.5,243C 323,243.5 322.5,244 322,244.5C 321.667,249.5 321.333,254.5 321,259.5C 320.612,258.572 319.945,257.905 319,257.5C 309.216,263.58 300.216,262.58 292,254.5C 285.455,241.977 288.288,232.311 300.5,225.5 Z"/></g>
<g><path style="opacity:1" fill="#ddbb5f" d="M 121.5,233.5 C 127.33,233.161 129.83,235.827 129,241.5C 126.078,246.233 122.745,246.566 119,242.5C 117.927,238.9 118.76,235.9 121.5,233.5 Z"/></g>
<g><path style="opacity:1" fill="#0e0b05" d="M 121.5,236.5 C 126.159,236.015 127.492,237.848 125.5,242C 120.728,242.81 119.395,240.977 121.5,236.5 Z"/></g>
<g><path style="opacity:1" fill="#e2bf61" d="M 364.5,246.5 C 378.245,248.477 378.745,251.811 366,256.5C 365.5,256.167 365,255.833 364.5,255.5C 365.611,254.389 366.278,253.055 366.5,251.5C 365.813,249.823 365.146,248.156 364.5,246.5 Z"/></g>
<g><path style="opacity:1" fill="#4e4223" d="M 368.5,249.5 C 372.88,250.099 373.214,251.099 369.5,252.5C 368.614,251.675 368.281,250.675 368.5,249.5 Z"/></g>
<g><path style="opacity:1" fill="#d6b55c" d="M 116.5,260.5 C 118.255,261.072 119.922,261.906 121.5,263C 123.473,263.495 125.473,263.662 127.5,263.5C 127.5,264.5 127.5,265.5 127.5,266.5C 123.197,265.796 119.697,267.13 117,270.5C 116.37,268.097 117.203,266.263 119.5,265C 117.561,264.092 116.561,262.592 116.5,260.5 Z"/></g>
<g><path style="opacity:1" fill="#815c26" d="M 392.5,266.5 C 392.5,267.167 392.833,267.5 393.5,267.5C 392.582,285.178 388.248,301.844 380.5,317.5C 386.888,300.954 390.888,283.954 392.5,266.5 Z"/></g>
<g><path style="opacity:1" fill="#d2973f" d="M 106.5,233.5 C 107.167,238.833 107.833,244.167 108.5,249.5C 109.195,257.613 110.529,265.613 112.5,273.5C 112.167,275.833 110.833,277.167 108.5,277.5C 105.669,262.89 105.003,248.223 106.5,233.5 Z"/></g>
<g><path style="opacity:1" fill="#d0b059" d="M 367.5,270.5 C 372.651,270.814 375.151,273.481 375,278.5C 370.313,284.004 369.48,283.338 372.5,276.5C 371.62,273.483 369.786,272.816 367,274.5C 367.053,276.936 366.887,279.269 366.5,281.5C 363.666,279.559 362.832,276.893 364,273.5C 365.145,272.364 366.312,271.364 367.5,270.5 Z"/></g>
<g><path style="opacity:1" fill="#c57b27" d="M 112.5,273.5 C 115.126,280.099 117.792,286.766 120.5,293.5C 118.287,294.773 115.954,295.773 113.5,296.5C 111.369,290.312 109.703,283.978 108.5,277.5C 110.833,277.167 112.167,275.833 112.5,273.5 Z"/></g>
<g><path style="opacity:1" fill="#dcba5f" d="M 358.5,295.5 C 361.947,295.814 365.28,296.648 368.5,298C 369.59,300.279 369.256,302.446 367.5,304.5C 366.833,303.167 366.167,301.833 365.5,300.5C 364.468,302.04 363.135,302.54 361.5,302C 362.731,300.817 362.731,299.651 361.5,298.5C 360.719,299.737 359.719,300.737 358.5,301.5C 357.769,299.599 357.769,297.599 358.5,295.5 Z"/></g>
<g><path style="opacity:1" fill="#b46518" d="M 120.5,293.5 C 124.466,299.811 128.466,306.144 132.5,312.5C 132.565,312.938 132.399,313.272 132,313.5C 131.085,312.672 130.419,311.672 130,310.5C 129.48,312.289 129.813,313.956 131,315.5C 132.78,317.293 134.613,318.96 136.5,320.5C 135.975,321.192 135.308,321.692 134.5,322C 136.466,323.347 136.799,324.847 135.5,326.5C 132.807,322.173 129.974,317.84 127,313.5C 124.637,313.332 123.137,314.665 122.5,317.5C 118.713,310.916 115.713,303.916 113.5,296.5C 115.954,295.773 118.287,294.773 120.5,293.5 Z"/></g>
<g><path style="opacity:1" fill="#c98530" d="M 135.5,326.5 C 136.819,328.468 136.819,330.468 135.5,332.5C 137.185,334.571 138.852,336.571 140.5,338.5C 141.626,339.858 141.626,341.192 140.5,342.5C 139.378,341.37 138.044,340.703 136.5,340.5C 131.012,333.343 126.346,325.676 122.5,317.5C 123.137,314.665 124.637,313.332 127,313.5C 129.974,317.84 132.807,322.173 135.5,326.5 Z"/></g>
<g><path style="opacity:1" fill="#743f0d" d="M 375.5,327.5 C 375.25,329.674 374.25,331.341 372.5,332.5C 372.75,330.326 373.75,328.659 375.5,327.5 Z"/></g>
<g><path style="opacity:1" fill="#926325" d="M 132.5,312.5 C 134.804,315.141 137.138,317.808 139.5,320.5C 140.041,325.319 142.374,329.486 146.5,333C 145.428,334.284 144.095,334.617 142.5,334C 144.126,336.628 146.126,338.961 148.5,341C 148.272,341.399 147.938,341.565 147.5,341.5C 145.519,339.856 143.519,338.19 141.5,336.5C 140.702,336.957 140.369,337.624 140.5,338.5C 138.852,336.571 137.185,334.571 135.5,332.5C 136.819,330.468 136.819,328.468 135.5,326.5C 136.799,324.847 136.466,323.347 134.5,322C 135.308,321.692 135.975,321.192 136.5,320.5C 134.613,318.96 132.78,317.293 131,315.5C 129.813,313.956 129.48,312.289 130,310.5C 130.419,311.672 131.085,312.672 132,313.5C 132.399,313.272 132.565,312.938 132.5,312.5 Z"/></g>
<g><path style="opacity:1" fill="#dcba5e" d="M 341.5,330.5 C 347.82,330.32 350.32,333.32 349,339.5C 347.395,342.274 345.228,342.94 342.5,341.5C 343.655,340.05 345.155,339.05 347,338.5C 347.934,333.917 346.1,332.417 341.5,334C 340.483,335.049 340.316,336.216 341,337.5C 342.049,336.483 343.216,336.316 344.5,337C 340.003,342.589 338.169,341.423 339,333.5C 340.045,332.627 340.878,331.627 341.5,330.5 Z"/></g>
<g><path style="opacity:1" fill="#74400e" d="M 372.5,332.5 C 372.25,334.674 371.25,336.341 369.5,337.5C 369.75,335.326 370.75,333.659 372.5,332.5 Z"/></g>
<g><path style="opacity:1" fill="#423117" d="M 147.5,327.5 C 155.172,331.873 163.506,334.039 172.5,334C 169.305,334.181 166.305,334.681 163.5,335.5C 162.833,335.5 162.5,335.833 162.5,336.5C 161.833,336.5 161.5,336.833 161.5,337.5C 157.735,338.94 154.068,338.44 150.5,336C 151.551,334.615 152.884,333.615 154.5,333C 152.5,332 150.5,331 148.5,330C 147.748,329.329 147.414,328.496 147.5,327.5 Z"/></g>
<g><path style="opacity:1" fill="#292214" d="M 198.5,335.5 C 201.019,336.727 204.352,337.393 208.5,337.5C 215.802,338.653 222.136,341.653 227.5,346.5C 228.29,347.794 229.29,348.961 230.5,350C 229.833,350.333 229.167,350.667 228.5,351C 230.017,352.685 231.684,354.185 233.5,355.5C 233.043,356.298 232.376,356.631 231.5,356.5C 229.611,355.396 227.945,354.063 226.5,352.5C 226.167,351.5 225.5,350.833 224.5,350.5C 224.611,349.883 224.944,349.383 225.5,349C 219.38,345.469 213.047,342.636 206.5,340.5C 199.633,337.945 192.633,337.279 185.5,338.5C 183.265,338.795 181.265,338.461 179.5,337.5C 176.713,336.523 173.713,336.19 170.5,336.5C 171.263,335.732 172.263,335.232 173.5,335C 182.01,334.177 190.344,334.343 198.5,335.5 Z"/></g>
<g><path style="opacity:1" fill="#705b2e" d="M 198.5,335.5 C 202.122,335.322 205.456,335.989 208.5,337.5C 204.352,337.393 201.019,336.727 198.5,335.5 Z"/></g>
<g><path style="opacity:1" fill="#856630" d="M 162.5,336.5 C 162.5,335.833 162.833,335.5 163.5,335.5C 165.95,335.298 168.283,335.631 170.5,336.5C 173.713,336.19 176.713,336.523 179.5,337.5C 173.804,337.553 168.138,337.22 162.5,336.5 Z"/></g>
<g><path style="opacity:1" fill="#6b5227" d="M 139.5,320.5 C 142.167,322.833 144.833,325.167 147.5,327.5C 147.414,328.496 147.748,329.329 148.5,330C 150.5,331 152.5,332 154.5,333C 152.884,333.615 151.551,334.615 150.5,336C 154.068,338.44 157.735,338.94 161.5,337.5C 174.845,338.822 188.178,340.322 201.5,342C 206.211,342.751 210.544,344.251 214.5,346.5C 200.079,342.864 185.413,340.864 170.5,340.5C 167.623,339.482 164.623,339.649 161.5,341C 165.5,341.667 165.5,342.333 161.5,343C 162.448,343.483 163.448,343.649 164.5,343.5C 165.5,344.167 166.5,344.833 167.5,345.5C 165.901,345.232 164.568,345.566 163.5,346.5C 162.761,346.369 162.094,346.536 161.5,347C 166.489,349.201 166.155,350.034 160.5,349.5C 160.264,350.247 159.93,351.08 159.5,352C 160.549,352.492 161.549,352.326 162.5,351.5C 164.271,352.035 164.604,352.869 163.5,354C 165.862,353.068 168.028,353.568 170,355.5C 170.464,354.906 170.631,354.239 170.5,353.5C 172.786,353.595 174.786,354.262 176.5,355.5C 175.127,355.343 173.793,355.51 172.5,356C 174.315,356.757 175.981,357.59 177.5,358.5C 176.448,358.351 175.448,358.517 174.5,359C 176.066,359.608 177.4,360.442 178.5,361.5C 175.538,360.939 172.705,359.939 170,358.5C 169.5,358.667 169,358.833 168.5,359C 169.416,359.278 170.082,359.778 170.5,360.5C 171.463,361.363 171.463,362.03 170.5,362.5C 165.55,359.18 160.55,356.846 155.5,355.5C 155.611,354.883 155.944,354.383 156.5,354C 154.951,352.786 153.785,351.286 153,349.5C 151.434,350.061 150.101,349.394 149,347.5C 148.493,346.004 148.993,344.837 150.5,344C 149.058,343.623 148.058,342.79 147.5,341.5C 147.938,341.565 148.272,341.399 148.5,341C 146.126,338.961 144.126,336.628 142.5,334C 144.095,334.617 145.428,334.284 146.5,333C 142.374,329.486 140.041,325.319 139.5,320.5 Z"/></g>
<g><path style="opacity:1" fill="#090602" d="M 161.5,337.5 C 161.5,336.833 161.833,336.5 162.5,336.5C 168.138,337.22 173.804,337.553 179.5,337.5C 181.265,338.461 183.265,338.795 185.5,338.5C 192.526,338.92 199.526,339.587 206.5,340.5C 213.047,342.636 219.38,345.469 225.5,349C 224.944,349.383 224.611,349.883 224.5,350.5C 221.386,348.609 218.052,347.276 214.5,346.5C 210.544,344.251 206.211,342.751 201.5,342C 188.178,340.322 174.845,338.822 161.5,337.5 Z"/></g>
<g><path style="opacity:1" fill="#705b2e" d="M 185.5,338.5 C 192.633,337.279 199.633,337.945 206.5,340.5C 199.526,339.587 192.526,338.92 185.5,338.5 Z"/></g>
<g><path style="opacity:1" fill="#794411" d="M 369.5,337.5 C 369.262,339.404 368.262,340.738 366.5,341.5C 366.738,339.596 367.738,338.262 369.5,337.5 Z"/></g>
<g><path style="opacity:1" fill="#060402" d="M 170.5,340.5 C 185.413,340.864 200.079,342.864 214.5,346.5C 218.182,349.008 222.182,351.008 226.5,352.5C 227.945,354.063 229.611,355.396 231.5,356.5C 233.031,357.925 232.698,358.591 230.5,358.5C 227.506,356 224.173,354 220.5,352.5C 215.274,349.475 209.607,347.309 203.5,346C 194.596,344.037 185.596,342.871 176.5,342.5C 174.5,341.833 172.5,341.167 170.5,340.5 Z"/></g>
<g><path style="opacity:1" fill="#794612" d="M 366.5,341.5 C 366.573,343.027 365.906,344.027 364.5,344.5C 364.427,342.973 365.094,341.973 366.5,341.5 Z"/></g>
<g><path style="opacity:1" fill="#201a0f" d="M 170.5,340.5 C 172.5,341.167 174.5,341.833 176.5,342.5C 191.41,344.324 206.077,347.657 220.5,352.5C 224.173,354 227.506,356 230.5,358.5C 226.488,356.81 225.822,357.477 228.5,360.5C 225.331,359.083 222.331,357.417 219.5,355.5C 212.994,351.94 205.994,349.44 198.5,348C 188.109,346.488 177.776,344.655 167.5,342.5C 166.584,342.543 165.917,342.876 165.5,343.5C 165.167,343.5 164.833,343.5 164.5,343.5C 163.448,343.649 162.448,343.483 161.5,343C 165.5,342.333 165.5,341.667 161.5,341C 164.623,339.649 167.623,339.482 170.5,340.5 Z"/></g>
<g><path style="opacity:1" fill="#7e6633" d="M 167.5,345.5 C 175.723,346.677 183.723,348.344 191.5,350.5C 183.117,350.091 175.117,348.424 167.5,345.5 Z"/></g>
<g><path style="opacity:1" fill="#080602" d="M 164.5,343.5 C 164.833,343.5 165.167,343.5 165.5,343.5C 183.814,346.217 201.814,350.217 219.5,355.5C 222.331,357.417 225.331,359.083 228.5,360.5C 230.978,362.803 233.645,364.969 236.5,367C 233.139,365.824 229.806,364.324 226.5,362.5C 223.753,359.793 220.42,358.127 216.5,357.5C 208.662,353.787 200.328,351.454 191.5,350.5C 183.723,348.344 175.723,346.677 167.5,345.5C 166.5,344.833 165.5,344.167 164.5,343.5 Z"/></g>
<g><path style="opacity:1" fill="#7d6835" d="M 176.5,342.5 C 185.596,342.871 194.596,344.037 203.5,346C 209.607,347.309 215.274,349.475 220.5,352.5C 206.077,347.657 191.41,344.324 176.5,342.5 Z"/></g>
<g><path style="opacity:1" fill="#6f4113" d="M 364.5,344.5 C 363.92,346.749 362.587,348.415 360.5,349.5C 361.08,347.251 362.413,345.585 364.5,344.5 Z"/></g>
<g><path style="opacity:1" fill="#897039" d="M 165.5,343.5 C 165.917,342.876 166.584,342.543 167.5,342.5C 177.776,344.655 188.109,346.488 198.5,348C 205.994,349.44 212.994,351.94 219.5,355.5C 201.814,350.217 183.814,346.217 165.5,343.5 Z"/></g>
<g><path style="opacity:1" fill="#856b35" d="M 214.5,346.5 C 218.052,347.276 221.386,348.609 224.5,350.5C 225.5,350.833 226.167,351.5 226.5,352.5C 222.182,351.008 218.182,349.008 214.5,346.5 Z"/></g>
<g><path style="opacity:1" fill="#d2b25a" d="M 325.5,347.5 C 328.666,349.834 331.333,352.667 333.5,356C 333,356.5 332.5,357 332,357.5C 329.667,355.167 327.333,352.833 325,350.5C 324.53,349.423 324.697,348.423 325.5,347.5 Z"/></g>
<g><path style="opacity:1" fill="#050401" d="M 163.5,346.5 C 164.568,345.566 165.901,345.232 167.5,345.5C 175.117,348.424 183.117,350.091 191.5,350.5C 199.691,352.967 208.024,355.301 216.5,357.5C 219.515,359.674 222.849,361.341 226.5,362.5C 226.217,363.289 225.717,363.956 225,364.5C 222.104,362.467 218.937,361.134 215.5,360.5C 202.024,355.296 188.024,351.63 173.5,349.5C 170.381,348.13 167.048,347.13 163.5,346.5 Z"/></g>
<g><path style="opacity:1" fill="#7b6634" d="M 176.5,351.5 C 180.897,353.015 185.23,354.682 189.5,356.5C 182.452,355.04 175.452,353.373 168.5,351.5C 168.082,350.778 167.416,350.278 166.5,350C 167,349.833 167.5,349.667 168,349.5C 170.724,350.687 173.557,351.353 176.5,351.5 Z"/></g>
<g><path style="opacity:1" fill="#69562b" d="M 191.5,350.5 C 200.328,351.454 208.662,353.787 216.5,357.5C 208.024,355.301 199.691,352.967 191.5,350.5 Z"/></g>
<g><path style="opacity:1" fill="#b68c41" d="M 147.5,341.5 C 148.058,342.79 149.058,343.623 150.5,344C 148.993,344.837 148.493,346.004 149,347.5C 150.101,349.394 151.434,350.061 153,349.5C 153.785,351.286 154.951,352.786 156.5,354C 155.944,354.383 155.611,354.883 155.5,355.5C 154.637,354.537 153.97,354.537 153.5,355.5C 154.648,357.149 155.981,358.649 157.5,360C 156.944,360.383 156.611,360.883 156.5,361.5C 149.131,355.132 142.464,348.132 136.5,340.5C 138.044,340.703 139.378,341.37 140.5,342.5C 141.626,341.192 141.626,339.858 140.5,338.5C 140.369,337.624 140.702,336.957 141.5,336.5C 143.519,338.19 145.519,339.856 147.5,341.5 Z"/></g>
<g><path style="opacity:1" fill="#392f19" d="M 163.5,346.5 C 167.048,347.13 170.381,348.13 173.5,349.5C 174.5,350.167 175.5,350.833 176.5,351.5C 173.557,351.353 170.724,350.687 168,349.5C 167.5,349.667 167,349.833 166.5,350C 167.416,350.278 168.082,350.778 168.5,351.5C 169.167,352.167 169.833,352.833 170.5,353.5C 170.631,354.239 170.464,354.906 170,355.5C 168.028,353.568 165.862,353.068 163.5,354C 164.604,352.869 164.271,352.035 162.5,351.5C 161.549,352.326 160.549,352.492 159.5,352C 159.93,351.08 160.264,350.247 160.5,349.5C 166.155,350.034 166.489,349.201 161.5,347C 162.094,346.536 162.761,346.369 163.5,346.5 Z"/></g>
<g><path style="opacity:1" fill="#866e37" d="M 173.5,349.5 C 188.024,351.63 202.024,355.296 215.5,360.5C 202.654,356.864 189.654,353.864 176.5,351.5C 175.5,350.833 174.5,350.167 173.5,349.5 Z"/></g>
<g><path style="opacity:1" fill="#806a37" d="M 176.5,355.5 C 183.817,356.742 190.817,358.742 197.5,361.5C 190.082,360.566 183.082,358.566 176.5,355.5 Z"/></g>
<g><path style="opacity:1" fill="#070401" d="M 168.5,351.5 C 175.452,353.373 182.452,355.04 189.5,356.5C 203.984,359.885 217.984,364.885 231.5,371.5C 234.598,373.892 237.931,376.058 241.5,378C 239.494,377.85 237.494,377.35 235.5,376.5C 227.811,371.492 219.478,367.825 210.5,365.5C 206.498,363.39 202.165,362.057 197.5,361.5C 190.817,358.742 183.817,356.742 176.5,355.5C 174.786,354.262 172.786,353.595 170.5,353.5C 169.833,352.833 169.167,352.167 168.5,351.5 Z"/></g>
<g><path style="opacity:1" fill="#89723b" d="M 177.5,358.5 C 180.854,358.747 183.854,359.747 186.5,361.5C 183.084,361.472 180.084,360.472 177.5,358.5 Z"/></g>
<g><path style="opacity:1" fill="#271d10" d="M 176.5,355.5 C 183.082,358.566 190.082,360.566 197.5,361.5C 201.502,363.61 205.835,364.943 210.5,365.5C 219.478,367.825 227.811,371.492 235.5,376.5C 236.463,377.363 236.463,378.03 235.5,378.5C 233.677,377.253 231.677,376.586 229.5,376.5C 222.678,374.009 216.011,371.342 209.5,368.5C 205.498,366.39 201.165,365.057 196.5,364.5C 193.495,362.723 190.162,361.723 186.5,361.5C 183.854,359.747 180.854,358.747 177.5,358.5C 175.981,357.59 174.315,356.757 172.5,356C 173.793,355.51 175.127,355.343 176.5,355.5 Z"/></g>
<g><path style="opacity:1" fill="#764917" d="M 358.5,351.5 C 354.5,357.5 349.5,362.5 343.5,366.5C 348.167,361.167 353.167,356.167 358.5,351.5 Z"/></g>
<g><path style="opacity:1" fill="#dcba5f" d="M 311.5,358.5 C 312.496,358.414 313.329,358.748 314,359.5C 315.3,362.295 316.8,364.961 318.5,367.5C 315.13,371.613 312.13,371.446 309.5,367C 309.645,366.228 309.978,365.561 310.5,365C 308.998,364.417 307.665,363.584 306.5,362.5C 308.473,361.669 310.473,361.502 312.5,362C 310.627,361.047 310.294,359.88 311.5,358.5 Z"/></g>
<g><path style="opacity:1" fill="#8a723b" d="M 155.5,355.5 C 160.55,356.846 165.55,359.18 170.5,362.5C 171.463,362.03 171.463,361.363 170.5,360.5C 172.153,360.66 173.486,361.326 174.5,362.5C 173.761,362.369 173.094,362.536 172.5,363C 173.571,363.852 174.571,364.685 175.5,365.5C 174.761,365.369 174.094,365.536 173.5,366C 174.696,366.654 174.696,367.154 173.5,367.5C 171.668,366.752 170.001,365.752 168.5,364.5C 167.5,365 166.5,365.5 165.5,366C 168.328,368.248 171.328,370.248 174.5,372C 173.584,372.278 172.918,372.778 172.5,373.5C 166.313,370.647 160.979,366.647 156.5,361.5C 156.611,360.883 156.944,360.383 157.5,360C 155.981,358.649 154.648,357.149 153.5,355.5C 153.97,354.537 154.637,354.537 155.5,355.5 Z"/></g>
<g><path style="opacity:1" fill="#8a7037" d="M 178.5,361.5 C 185.784,363.261 192.784,365.595 199.5,368.5C 192.085,367.14 185.085,364.806 178.5,361.5 Z"/></g>
<g><path style="opacity:1" fill="#644f25" d="M 197.5,361.5 C 202.165,362.057 206.498,363.39 210.5,365.5C 205.835,364.943 201.502,363.61 197.5,361.5 Z"/></g>
<g><path style="opacity:1" fill="#282214" d="M 174.5,362.5 C 175.833,363.5 177.167,364.5 178.5,365.5C 177.5,365.5 176.5,365.5 175.5,365.5C 174.571,364.685 173.571,363.852 172.5,363C 173.094,362.536 173.761,362.369 174.5,362.5 Z"/></g>
<g><path style="opacity:1" fill="#957c3f" d="M 174.5,362.5 C 177.016,362.755 179.35,363.589 181.5,365C 180.552,365.483 179.552,365.649 178.5,365.5C 177.167,364.5 175.833,363.5 174.5,362.5 Z"/></g>
<g><path style="opacity:1" fill="#0c0803" d="M 177.5,358.5 C 180.084,360.472 183.084,361.472 186.5,361.5C 189.505,363.277 192.838,364.277 196.5,364.5C 200.502,366.61 204.835,367.943 209.5,368.5C 216.011,371.342 222.678,374.009 229.5,376.5C 233.743,379.024 238.076,381.357 242.5,383.5C 240.5,383.167 238.5,382.833 236.5,382.5C 230.57,379.039 224.236,376.373 217.5,374.5C 213.915,372.194 209.915,370.861 205.5,370.5C 203.786,369.262 201.786,368.595 199.5,368.5C 192.784,365.595 185.784,363.261 178.5,361.5C 177.4,360.442 176.066,359.608 174.5,359C 175.448,358.517 176.448,358.351 177.5,358.5 Z"/></g>
<g><path style="opacity:1" fill="#77602f" d="M 186.5,361.5 C 190.162,361.723 193.495,362.723 196.5,364.5C 192.838,364.277 189.505,363.277 186.5,361.5 Z"/></g>
<g><path style="opacity:1" fill="#634d24" d="M 196.5,364.5 C 201.165,365.057 205.498,366.39 209.5,368.5C 204.835,367.943 200.502,366.61 196.5,364.5 Z"/></g>
<g><path style="opacity:1" fill="#1a160d" d="M 312.5,365.5 C 316.31,366.754 316.31,367.754 312.5,368.5C 312.5,367.5 312.5,366.5 312.5,365.5 Z"/></g>
<g><path style="opacity:1" fill="#93773b" d="M 175.5,365.5 C 176.5,365.5 177.5,365.5 178.5,365.5C 180.5,366.833 182.5,368.167 184.5,369.5C 182.079,369.122 179.746,368.455 177.5,367.5C 176.833,366.833 176.167,366.167 175.5,365.5 Z"/></g>
<g><path style="opacity:1" fill="#7c4e1a" d="M 343.5,366.5 C 342.415,368.587 340.749,369.92 338.5,370.5C 339.585,368.413 341.251,367.08 343.5,366.5 Z"/></g>
<g><path style="opacity:1" fill="#322514" d="M 227.5,346.5 C 231.1,348.43 234.1,351.097 236.5,354.5C 236.286,356.144 236.62,357.644 237.5,359C 236.833,359.333 236.167,359.667 235.5,360C 236.5,361 237.5,362 238.5,363C 237.833,363.333 237.167,363.667 236.5,364C 238.667,365.5 240.833,367 243,368.5C 244.297,367.216 245.464,367.383 246.5,369C 244.945,370.646 243.279,370.979 241.5,370C 242.328,370.915 243.328,371.581 244.5,372C 242.776,372.448 242.109,373.282 242.5,374.5C 240.167,373.167 237.833,371.833 235.5,370.5C 235.167,371.167 234.833,371.833 234.5,372.5C 233.583,371.873 232.583,371.539 231.5,371.5C 217.984,364.885 203.984,359.885 189.5,356.5C 185.23,354.682 180.897,353.015 176.5,351.5C 189.654,353.864 202.654,356.864 215.5,360.5C 218.937,361.134 222.104,362.467 225,364.5C 225.717,363.956 226.217,363.289 226.5,362.5C 229.806,364.324 233.139,365.824 236.5,367C 233.645,364.969 230.978,362.803 228.5,360.5C 225.822,357.477 226.488,356.81 230.5,358.5C 232.698,358.591 233.031,357.925 231.5,356.5C 232.376,356.631 233.043,356.298 233.5,355.5C 231.684,354.185 230.017,352.685 228.5,351C 229.167,350.667 229.833,350.333 230.5,350C 229.29,348.961 228.29,347.794 227.5,346.5 Z"/></g>
<g><path style="opacity:1" fill="#634b23" d="M 216.5,357.5 C 220.42,358.127 223.753,359.793 226.5,362.5C 222.849,361.341 219.515,359.674 216.5,357.5 Z"/></g>
<g><path style="opacity:1" fill="#d4b45b" d="M 292.5,368.5 C 293.376,368.369 294.043,368.702 294.5,369.5C 295.833,372.5 297.167,375.5 298.5,378.5C 298,378.833 297.5,379.167 297,379.5C 295.14,377.625 293.64,375.458 292.5,373C 291.062,372.781 289.729,372.281 288.5,371.5C 289.901,370.479 291.235,369.479 292.5,368.5 Z"/></g>
<g><path style="opacity:1" fill="#785f2e" d="M 180.5,370.5 C 183.241,370.707 185.574,371.707 187.5,373.5C 184.759,373.293 182.426,372.293 180.5,370.5 Z"/></g>
<g><path style="opacity:1" fill="#825f29" d="M 205.5,370.5 C 209.915,370.861 213.915,372.194 217.5,374.5C 213.216,373.739 209.216,372.405 205.5,370.5 Z"/></g>
<g><path style="opacity:1" fill="#89581d" d="M 338.5,370.5 C 338.027,371.906 337.027,372.573 335.5,372.5C 335.973,371.094 336.973,370.427 338.5,370.5 Z"/></g>
<g><path style="opacity:1" fill="#5d4b26" d="M 175.5,365.5 C 176.167,366.167 176.833,366.833 177.5,367.5C 178.306,368.728 179.306,369.728 180.5,370.5C 179.448,370.351 178.448,370.517 177.5,371C 181.5,373 185.5,375 189.5,377C 185.958,376.743 182.624,375.577 179.5,373.5C 179.891,374.718 179.224,375.552 177.5,376C 178.056,376.383 178.389,376.883 178.5,377.5C 176.147,376.66 174.147,375.326 172.5,373.5C 172.918,372.778 173.584,372.278 174.5,372C 171.328,370.248 168.328,368.248 165.5,366C 166.5,365.5 167.5,365 168.5,364.5C 170.001,365.752 171.668,366.752 173.5,367.5C 174.696,367.154 174.696,366.654 173.5,366C 174.094,365.536 174.761,365.369 175.5,365.5 Z"/></g>
<g><path style="opacity:1" fill="#1c140a" d="M 178.5,361.5 C 185.085,364.806 192.085,367.14 199.5,368.5C 201.786,368.595 203.786,369.262 205.5,370.5C 209.216,372.405 213.216,373.739 217.5,374.5C 224.236,376.373 230.57,379.039 236.5,382.5C 236.918,383.222 237.584,383.722 238.5,384C 236.5,384 234.5,384 232.5,384C 237.571,385.965 242.571,387.798 247.5,389.5C 239.153,387.886 230.987,385.552 223,382.5C 221.238,382.944 221.405,383.444 223.5,384C 228.714,385.568 233.714,387.401 238.5,389.5C 234.833,388.833 231.167,388.167 227.5,387.5C 223.498,385.39 219.165,384.057 214.5,383.5C 211.785,381.928 208.785,380.928 205.5,380.5C 199.78,377.647 193.78,375.314 187.5,373.5C 185.574,371.707 183.241,370.707 180.5,370.5C 179.306,369.728 178.306,368.728 177.5,367.5C 179.746,368.455 182.079,369.122 184.5,369.5C 182.5,368.167 180.5,366.833 178.5,365.5C 179.552,365.649 180.552,365.483 181.5,365C 179.35,363.589 177.016,362.755 174.5,362.5C 173.486,361.326 172.153,360.66 170.5,360.5C 170.082,359.778 169.416,359.278 168.5,359C 169,358.833 169.5,358.667 170,358.5C 172.705,359.939 175.538,360.939 178.5,361.5 Z"/></g>
<g><path style="opacity:1" fill="#7d5d2a" d="M 210.5,375.5 C 205.304,374.713 200.304,373.213 195.5,371C 200.794,371.599 205.794,373.099 210.5,375.5 Z"/></g>
<g><path style="opacity:1" fill="#886b34" d="M 186.5,368.5 C 189.152,367.738 191.818,368.238 194.5,370C 191.78,370.045 189.114,369.545 186.5,368.5 Z"/></g>
<g><path style="opacity:1" fill="#6b3d10" d="M 260.5,378.5 C 261.117,378.389 261.617,378.056 262,377.5C 265.117,380.215 268.617,382.381 272.5,384C 269.833,384.667 269.833,385.333 272.5,386C 270.888,386.72 269.388,386.554 268,385.5C 266.933,387.283 265.433,387.783 263.5,387C 264.956,386.577 265.456,385.744 265,384.5C 263.008,385.328 261.508,386.661 260.5,388.5C 259.399,389.598 258.066,389.765 256.5,389C 258.878,388.026 258.544,387.359 255.5,387C 256.167,386.667 256.833,386.333 257.5,386C 253.809,385.148 250.142,384.482 246.5,384C 249.167,383.333 249.167,382.667 246.5,382C 249.097,381.221 249.097,380.721 246.5,380.5C 246.918,379.778 247.584,379.278 248.5,379C 247.833,378.667 247.167,378.333 246.5,378C 248.224,377.552 248.891,376.718 248.5,375.5C 248.837,377.425 250.17,378.925 252.5,380C 252.167,380.333 251.833,380.667 251.5,381C 252.5,381.5 253.5,382 254.5,382.5C 256.79,381.533 258.79,380.2 260.5,378.5 Z"/></g>
<g><path style="opacity:1" fill="#84622b" d="M 187.5,373.5 C 193.78,375.314 199.78,377.647 205.5,380.5C 202.5,379.833 199.5,379.167 196.5,378.5C 193.409,377.023 190.409,375.356 187.5,373.5 Z"/></g>
<g><path style="opacity:1" fill="#987132" d="M 184.5,369.5 C 193.907,372.366 203.24,375.533 212.5,379C 202.57,377.523 193.236,374.357 184.5,369.5 Z"/></g>
<g><path style="opacity:1" fill="#7b5622" d="M 210.5,375.5 C 215.313,376.493 219.98,377.993 224.5,380C 219.457,379.597 214.79,378.097 210.5,375.5 Z"/></g>
<g><path style="opacity:1" fill="#2f2111" d="M 196.5,378.5 C 199.5,379.167 202.5,379.833 205.5,380.5C 208.785,380.928 211.785,381.928 214.5,383.5C 218.502,385.61 222.835,386.943 227.5,387.5C 231.167,388.167 234.833,388.833 238.5,389.5C 241.216,389.678 243.883,390.178 246.5,391C 241.167,391.667 241.167,392.333 246.5,393C 245.667,393.167 244.833,393.333 244,393.5C 237.201,391.925 230.368,390.591 223.5,389.5C 218.5,387.057 213.166,385.39 207.5,384.5C 201.94,383.369 196.607,381.536 191.5,379C 193.342,379.068 195.009,378.901 196.5,378.5 Z"/></g>
<g><path style="opacity:1" fill="#4f3314" d="M 236.5,354.5 C 244.525,361.529 252.525,368.529 260.5,375.5C 259.884,376.202 259.884,377.202 260.5,378.5C 258.79,380.2 256.79,381.533 254.5,382.5C 253.5,382 252.5,381.5 251.5,381C 251.833,380.667 252.167,380.333 252.5,380C 250.17,378.925 248.837,377.425 248.5,375.5C 248.891,376.718 248.224,377.552 246.5,378C 247.167,378.333 247.833,378.667 248.5,379C 247.584,379.278 246.918,379.778 246.5,380.5C 243.476,380.947 243.143,381.78 245.5,383C 244.552,383.483 243.552,383.649 242.5,383.5C 238.076,381.357 233.743,379.024 229.5,376.5C 231.677,376.586 233.677,377.253 235.5,378.5C 236.463,378.03 236.463,377.363 235.5,376.5C 237.494,377.35 239.494,377.85 241.5,378C 237.931,376.058 234.598,373.892 231.5,371.5C 232.583,371.539 233.583,371.873 234.5,372.5C 234.833,371.833 235.167,371.167 235.5,370.5C 237.833,371.833 240.167,373.167 242.5,374.5C 242.109,373.282 242.776,372.448 244.5,372C 243.328,371.581 242.328,370.915 241.5,370C 243.279,370.979 244.945,370.646 246.5,369C 245.464,367.383 244.297,367.216 243,368.5C 240.833,367 238.667,365.5 236.5,364C 237.167,363.667 237.833,363.333 238.5,363C 237.5,362 236.5,361 235.5,360C 236.167,359.667 236.833,359.333 237.5,359C 236.62,357.644 236.286,356.144 236.5,354.5 Z"/></g>
<g><path style="opacity:1" fill="#926427" d="M 227.5,392.5 C 227.5,393.167 227.167,393.5 226.5,393.5C 215.868,391.511 205.535,388.511 195.5,384.5C 191.355,382.264 187.022,380.264 182.5,378.5C 181.537,377.637 181.537,376.97 182.5,376.5C 196.799,383.822 211.799,389.155 227.5,392.5 Z"/></g>
<g><path style="opacity:1" fill="#4e3a1c" d="M 178.5,377.5 C 179.833,377.833 181.167,378.167 182.5,378.5C 187.022,380.264 191.355,382.264 195.5,384.5C 196.225,385.97 197.891,387.136 200.5,388C 199.5,388.667 198.5,388.667 197.5,388C 190.783,384.98 184.449,381.48 178.5,377.5 Z"/></g>
<g><path style="opacity:1" fill="#110b04" d="M 180.5,370.5 C 182.426,372.293 184.759,373.293 187.5,373.5C 190.409,375.356 193.409,377.023 196.5,378.5C 195.009,378.901 193.342,379.068 191.5,379C 196.607,381.536 201.94,383.369 207.5,384.5C 212.5,386.943 217.834,388.61 223.5,389.5C 230.489,392.167 237.822,393.834 245.5,394.5C 239.519,395.179 233.519,394.512 227.5,392.5C 211.799,389.155 196.799,383.822 182.5,376.5C 181.537,376.97 181.537,377.637 182.5,378.5C 181.167,378.167 179.833,377.833 178.5,377.5C 178.389,376.883 178.056,376.383 177.5,376C 179.224,375.552 179.891,374.718 179.5,373.5C 182.624,375.577 185.958,376.743 189.5,377C 185.5,375 181.5,373 177.5,371C 178.448,370.517 179.448,370.351 180.5,370.5 Z"/></g>
<g><path style="opacity:1" fill="#794f1c" d="M 214.5,383.5 C 219.165,384.057 223.498,385.39 227.5,387.5C 222.835,386.943 218.502,385.61 214.5,383.5 Z"/></g>
<g><path style="opacity:1" fill="#7a511d" d="M 207.5,384.5 C 213.166,385.39 218.5,387.057 223.5,389.5C 217.834,388.61 212.5,386.943 207.5,384.5 Z"/></g>
<g><path style="opacity:1" fill="#c17825" d="M 335.5,372.5 C 320.424,384.201 303.424,391.867 284.5,395.5C 280.348,394.77 277.348,393.27 275.5,391C 276.458,389.853 276.125,388.853 274.5,388C 279.508,387.131 279.175,386.464 273.5,386C 274.756,385.583 275.423,384.75 275.5,383.5C 283.992,386.083 292.658,386.916 301.5,386C 313.721,383.542 325.054,379.042 335.5,372.5 Z"/></g>
<g><path style="opacity:1" fill="#38210b" d="M 246.5,380.5 C 249.097,380.721 249.097,381.221 246.5,382C 249.167,382.667 249.167,383.333 246.5,384C 250.142,384.482 253.809,385.148 257.5,386C 256.833,386.333 256.167,386.667 255.5,387C 258.544,387.359 258.878,388.026 256.5,389C 258.066,389.765 259.399,389.598 260.5,388.5C 261.5,388.5 262.5,388.5 263.5,388.5C 258.571,391.121 253.238,392.287 247.5,392C 248.833,391.667 250.167,391.333 251.5,391C 249.942,390.79 248.609,390.29 247.5,389.5C 242.571,387.798 237.571,385.965 232.5,384C 234.5,384 236.5,384 238.5,384C 237.584,383.722 236.918,383.222 236.5,382.5C 238.5,382.833 240.5,383.167 242.5,383.5C 243.552,383.649 244.552,383.483 245.5,383C 243.143,381.78 243.476,380.947 246.5,380.5 Z"/></g>
<g><path style="opacity:1" fill="#704010" d="M 247.5,389.5 C 248.609,390.29 249.942,390.79 251.5,391C 250.167,391.333 248.833,391.667 247.5,392C 253.238,392.287 258.571,391.121 263.5,388.5C 266.787,389.161 270.12,389.661 273.5,390C 271.699,390.317 271.366,390.984 272.5,392C 270.19,392.497 267.857,392.663 265.5,392.5C 266.263,391.732 267.263,391.232 268.5,391C 260.803,391.727 253.136,392.893 245.5,394.5C 237.822,393.834 230.489,392.167 223.5,389.5C 230.368,390.591 237.201,391.925 244,393.5C 244.833,393.333 245.667,393.167 246.5,393C 241.167,392.333 241.167,391.667 246.5,391C 243.883,390.178 241.216,389.678 238.5,389.5C 233.714,387.401 228.714,385.568 223.5,384C 221.405,383.444 221.238,382.944 223,382.5C 230.987,385.552 239.153,387.886 247.5,389.5 Z"/></g>
<g><path style="opacity:1" fill="#965717" d="M 260.5,375.5 C 265.525,378.208 270.525,380.875 275.5,383.5C 275.423,384.75 274.756,385.583 273.5,386C 279.175,386.464 279.508,387.131 274.5,388C 276.125,388.853 276.458,389.853 275.5,391C 277.348,393.27 280.348,394.77 284.5,395.5C 278.076,397.219 271.409,398.219 264.5,398.5C 259.215,397.765 253.882,397.265 248.5,397C 255.167,396.667 261.833,396.333 268.5,396C 264.619,394.81 260.619,394.143 256.5,394C 259.432,393.047 262.432,392.547 265.5,392.5C 267.857,392.663 270.19,392.497 272.5,392C 271.366,390.984 271.699,390.317 273.5,390C 270.12,389.661 266.787,389.161 263.5,388.5C 262.5,388.5 261.5,388.5 260.5,388.5C 261.508,386.661 263.008,385.328 265,384.5C 265.456,385.744 264.956,386.577 263.5,387C 265.433,387.783 266.933,387.283 268,385.5C 269.388,386.554 270.888,386.72 272.5,386C 269.833,385.333 269.833,384.667 272.5,384C 268.617,382.381 265.117,380.215 262,377.5C 261.617,378.056 261.117,378.389 260.5,378.5C 259.884,377.202 259.884,376.202 260.5,375.5 Z"/></g>
<g><path style="opacity:1" fill="#57320e" d="M 226.5,393.5 C 227.167,393.5 227.5,393.167 227.5,392.5C 233.519,394.512 239.519,395.179 245.5,394.5C 253.136,392.893 260.803,391.727 268.5,391C 267.263,391.232 266.263,391.732 265.5,392.5C 262.432,392.547 259.432,393.047 256.5,394C 260.619,394.143 264.619,394.81 268.5,396C 261.833,396.333 255.167,396.667 248.5,397C 253.882,397.265 259.215,397.765 264.5,398.5C 243.663,400.476 223.33,397.643 203.5,390C 214.314,392.784 225.314,395.117 236.5,397C 238.833,397.667 241.167,397.667 243.5,397C 237.637,396.128 231.97,394.961 226.5,393.5 Z"/></g>
</svg>
