<svg xmlns="http://www.w3.org/2000/svg" version="1.1" xmlns:xlink="http://www.w3.org/1999/xlink" xmlns:svgjs="http://svgjs.dev/svgjs" width="2000" height="388" viewBox="0 0 2000 388"><g transform="matrix(1,0,0,1,-2.446808510638334,-0.8796438356164913)"><svg viewBox="0 0 376 73" data-background-color="#ffffff" preserveAspectRatio="xMidYMid meet" height="388" width="2000" xmlns="http://www.w3.org/2000/svg" xmlns:xlink="http://www.w3.org/1999/xlink"><g id="tight-bounds" transform="matrix(1,0,0,1,0.46023999999999887,0.16556000000002769)"><svg viewBox="0 0 375.07953 72.66848999999992" height="72.66848999999992" width="375.07953"><g><svg></svg></g><g><svg viewBox="0 0 375.07953 72.66848999999992" height="72.66848999999992" width="375.07953"><g transform="matrix(1,0,0,1,-10.22024,-89.34806000000002)"><path d="M10.22 157.852v-68.504h375.08v68.504l-139.122 0 0-2.31h136.812v-63.884h-370.46v63.884l34.948 0 0 2.31z" fill="#000000" fill-rule="nonzero" stroke="none" stroke-width="1" stroke-linecap="butt" stroke-linejoin="miter" stroke-miterlimit="10" stroke-dasharray="" stroke-dashoffset="0" font-family="none" font-weight="none" font-size="none" text-anchor="none" style="mix-blend-mode: normal" data-fill-palette-color="tertiary"></path><g><path d="M55.415 152.186v4.405l-1.008-0.012v-3.945c0-0.166 0.05-0.299 0.149-0.398 0.1-0.1 0.232-0.149 0.399-0.149v0c0.091 0 0.182 0.012 0.273 0.037 0.091 0.025 0.153 0.046 0.187 0.063zM58.376 156.392h-3.421v-0.858h3.695c0.025 0.041 0.05 0.097 0.075 0.166 0.025 0.071 0.037 0.148 0.037 0.232v0c0 0.133-0.033 0.242-0.099 0.328-0.066 0.088-0.162 0.132-0.287 0.132zM58.812 152.946h-3.857v-0.859h4.131c0.025 0.033 0.05 0.087 0.074 0.162 0.025 0.075 0.037 0.153 0.038 0.236v0c0 0.133-0.033 0.242-0.1 0.329-0.066 0.088-0.162 0.132-0.286 0.132zM54.407 159.267v-4.044h1.02v4.417c-0.041 0.008-0.105 0.023-0.191 0.045-0.088 0.02-0.178 0.03-0.269 0.03v0c-0.182 0-0.321-0.037-0.416-0.112-0.096-0.075-0.144-0.187-0.144-0.336zM60.579 152.087v0c0-0.174 0.062-0.322 0.186-0.443 0.124-0.119 0.278-0.179 0.461-0.179v0c0.191 0 0.344 0.06 0.46 0.179 0.116 0.121 0.174 0.269 0.174 0.443v0c0 0.174-0.058 0.321-0.174 0.44-0.116 0.121-0.27 0.182-0.46 0.182v0c-0.182 0-0.336-0.061-0.461-0.182-0.124-0.119-0.187-0.266-0.186-0.44zM60.728 159.267v-2.9h0.996v3.26c-0.041 0.017-0.104 0.036-0.187 0.058-0.083 0.02-0.174 0.03-0.274 0.03v0c-0.174 0-0.307-0.036-0.398-0.107-0.091-0.07-0.137-0.183-0.137-0.341zM61.724 154.302v2.551h-0.996v-2.924c0.041-0.017 0.106-0.036 0.194-0.058 0.086-0.02 0.179-0.03 0.279-0.03v0c0.174 0 0.305 0.035 0.393 0.105 0.086 0.071 0.129 0.19 0.13 0.356zM68.642 155.857v0 1.269h-0.996v-1.219c0-0.465-0.13-0.805-0.39-1.02-0.262-0.216-0.613-0.324-1.053-0.324v0c-0.332 0-0.626 0.041-0.883 0.125-0.257 0.083-0.477 0.178-0.66 0.286v0 2.152h-0.995v-2.102c0-0.174 0.036-0.318 0.107-0.431 0.07-0.111 0.192-0.221 0.366-0.328v0c0.216-0.124 0.502-0.243 0.858-0.356 0.357-0.111 0.759-0.167 1.207-0.167v0c0.755 0 1.35 0.172 1.787 0.515 0.435 0.345 0.652 0.878 0.652 1.6zM63.665 159.267v-2.825h0.995v3.185c-0.041 0.017-0.104 0.036-0.187 0.058-0.083 0.02-0.174 0.03-0.273 0.03v0c-0.174 0-0.307-0.036-0.398-0.107-0.091-0.07-0.137-0.183-0.137-0.341zM67.646 159.267v-2.825h0.996v3.185c-0.041 0.017-0.105 0.036-0.192 0.058-0.088 0.02-0.178 0.03-0.268 0.03v0c-0.182 0-0.317-0.036-0.404-0.107-0.088-0.07-0.132-0.183-0.132-0.341zM72.561 159.005v0c0.348 0 0.637-0.036 0.867-0.107 0.227-0.07 0.391-0.138 0.49-0.204v0-1.804l-1.543 0.162c-0.431 0.033-0.751 0.129-0.958 0.286-0.207 0.158-0.311 0.386-0.311 0.684v0c0 0.307 0.123 0.547 0.368 0.722 0.244 0.174 0.606 0.261 1.087 0.261zM72.549 153.742v0c0.722 0 1.294 0.162 1.717 0.485 0.423 0.324 0.635 0.834 0.635 1.531v0 2.949c0 0.182-0.035 0.321-0.105 0.415-0.071 0.096-0.178 0.186-0.318 0.269v0c-0.199 0.108-0.465 0.207-0.797 0.299-0.332 0.091-0.705 0.137-1.12 0.137v0c-0.78 0-1.383-0.153-1.809-0.461-0.428-0.307-0.642-0.751-0.642-1.331v0c0-0.539 0.181-0.952 0.543-1.24 0.36-0.285 0.859-0.457 1.498-0.515v0l1.767-0.174v-0.348c0-0.415-0.124-0.718-0.374-0.909-0.249-0.191-0.585-0.286-1.007-0.286v0c-0.34 0-0.665 0.05-0.976 0.149-0.312 0.1-0.588 0.212-0.829 0.336v0c-0.066-0.058-0.126-0.127-0.179-0.206-0.055-0.078-0.082-0.158-0.082-0.242v0c0-0.216 0.12-0.382 0.361-0.497v0c0.224-0.116 0.484-0.206 0.779-0.269 0.294-0.061 0.606-0.092 0.938-0.092zM81.695 155.857v0 1.269h-0.996v-1.219c0-0.465-0.13-0.805-0.39-1.02-0.262-0.216-0.613-0.324-1.053-0.324v0c-0.332 0-0.626 0.041-0.884 0.125-0.257 0.083-0.477 0.178-0.659 0.286v0 2.152h-0.996v-2.102c0-0.174 0.036-0.318 0.107-0.431 0.07-0.111 0.192-0.221 0.366-0.328v0c0.216-0.124 0.502-0.243 0.859-0.356 0.357-0.111 0.759-0.167 1.207-0.167v0c0.755 0 1.35 0.172 1.787 0.515 0.435 0.345 0.652 0.878 0.652 1.6zM76.717 159.267v-2.825h0.996v3.185c-0.041 0.017-0.104 0.036-0.187 0.058-0.083 0.02-0.174 0.03-0.273 0.03v0c-0.174 0-0.307-0.036-0.399-0.107-0.091-0.07-0.137-0.183-0.137-0.341zM80.699 159.267v-2.825h0.996v3.185c-0.041 0.017-0.105 0.036-0.192 0.058-0.088 0.02-0.178 0.03-0.269 0.03v0c-0.182 0-0.317-0.036-0.403-0.107-0.088-0.07-0.132-0.183-0.132-0.341zM86.224 154.576v0c-0.564 0-1.033 0.191-1.406 0.572-0.373 0.382-0.56 0.929-0.56 1.642v0c0 0.705 0.181 1.248 0.543 1.631 0.36 0.382 0.835 0.572 1.423 0.572v0c0.348 0 0.639-0.048 0.871-0.144 0.232-0.095 0.44-0.204 0.622-0.329v0c0.091 0.05 0.166 0.112 0.224 0.187 0.058 0.075 0.087 0.166 0.087 0.273v0c0 0.232-0.172 0.429-0.515 0.59-0.345 0.163-0.775 0.244-1.289 0.244v0c-0.572 0-1.084-0.11-1.535-0.331-0.453-0.219-0.808-0.552-1.066-1-0.257-0.448-0.386-1.012-0.385-1.693v0c0-0.672 0.133-1.234 0.398-1.687 0.265-0.451 0.625-0.791 1.077-1.02 0.451-0.227 0.947-0.341 1.486-0.341v0c0.514 0 0.94 0.087 1.277 0.261 0.335 0.174 0.503 0.373 0.502 0.597v0c0 0.1-0.029 0.187-0.087 0.262-0.058 0.075-0.133 0.133-0.224 0.174v0c-0.182-0.124-0.383-0.232-0.602-0.324-0.221-0.091-0.501-0.137-0.841-0.136zM89.422 152.087v0c0-0.174 0.062-0.322 0.187-0.443 0.124-0.119 0.278-0.179 0.46-0.179v0c0.191 0 0.344 0.06 0.46 0.179 0.116 0.121 0.174 0.269 0.175 0.443v0c0 0.174-0.058 0.321-0.175 0.44-0.116 0.121-0.27 0.182-0.46 0.182v0c-0.182 0-0.336-0.061-0.46-0.182-0.124-0.119-0.187-0.266-0.187-0.44zM89.571 159.267v-2.9h0.996v3.26c-0.041 0.017-0.104 0.036-0.187 0.058-0.083 0.02-0.174 0.03-0.274 0.03v0c-0.174 0-0.307-0.036-0.398-0.107-0.091-0.07-0.137-0.183-0.137-0.341zM90.567 154.302v2.551h-0.996v-2.924c0.041-0.017 0.106-0.036 0.194-0.058 0.086-0.02 0.179-0.03 0.279-0.03v0c0.174 0 0.304 0.035 0.391 0.105 0.088 0.071 0.132 0.19 0.132 0.356zM94.561 159.005v0c0.348 0 0.637-0.036 0.866-0.107 0.227-0.07 0.391-0.138 0.49-0.204v0-1.804l-1.543 0.162c-0.431 0.033-0.751 0.129-0.958 0.286-0.207 0.158-0.311 0.386-0.311 0.684v0c0 0.307 0.123 0.547 0.368 0.722 0.244 0.174 0.606 0.261 1.088 0.261zM94.548 153.742v0c0.722 0 1.294 0.162 1.718 0.485 0.423 0.324 0.635 0.834 0.634 1.531v0 2.949c0 0.182-0.035 0.321-0.104 0.415-0.071 0.096-0.178 0.186-0.319 0.269v0c-0.199 0.108-0.465 0.207-0.796 0.299-0.332 0.091-0.705 0.137-1.12 0.137v0c-0.78 0-1.383-0.153-1.809-0.461-0.428-0.307-0.642-0.751-0.642-1.331v0c0-0.539 0.181-0.952 0.542-1.24 0.36-0.285 0.859-0.457 1.498-0.515v0l1.767-0.174v-0.348c0-0.415-0.124-0.718-0.373-0.909-0.249-0.191-0.585-0.286-1.008-0.286v0c-0.34 0-0.665 0.05-0.976 0.149-0.312 0.1-0.588 0.212-0.828 0.336v0c-0.066-0.058-0.126-0.127-0.179-0.206-0.055-0.078-0.082-0.158-0.083-0.242v0c0-0.216 0.12-0.382 0.361-0.497v0c0.224-0.116 0.484-0.206 0.779-0.269 0.294-0.061 0.606-0.092 0.938-0.092zM98.816 159.267v-2.9l0.996 0.15v3.11c-0.041 0.017-0.104 0.036-0.187 0.058-0.083 0.02-0.174 0.03-0.274 0.03v0c-0.174 0-0.307-0.036-0.398-0.107-0.091-0.07-0.137-0.183-0.137-0.341zM99.812 151.95v5.04l-0.996-0.137v-5.264c0.041-0.017 0.106-0.036 0.195-0.057 0.086-0.02 0.175-0.03 0.266-0.03v0c0.182 0 0.318 0.035 0.405 0.105 0.086 0.071 0.129 0.186 0.13 0.343zM104.441 159.105v-3.87h1.02v4.318l-0.473 0.099c-0.158 0-0.288-0.052-0.391-0.156-0.105-0.103-0.157-0.233-0.156-0.391zM108.758 159.652h-3.77v-0.871h4.044c0.041 0.033 0.075 0.087 0.1 0.162 0.025 0.075 0.037 0.158 0.037 0.249v0c0 0.141-0.037 0.253-0.112 0.336-0.075 0.083-0.174 0.124-0.299 0.124zM105.461 152.485v3.497h-1.02v-3.87c0.041-0.017 0.106-0.036 0.194-0.057 0.086-0.02 0.179-0.03 0.279-0.03v0c0.182 0 0.319 0.035 0.41 0.104 0.091 0.071 0.137 0.19 0.137 0.356zM110.413 152.087v0c0-0.174 0.062-0.322 0.187-0.443 0.124-0.119 0.278-0.179 0.46-0.179v0c0.191 0 0.344 0.06 0.461 0.179 0.116 0.121 0.174 0.269 0.174 0.443v0c0 0.174-0.058 0.321-0.174 0.44-0.116 0.121-0.27 0.182-0.461 0.182v0c-0.182 0-0.336-0.061-0.46-0.182-0.124-0.119-0.187-0.266-0.187-0.44zM110.563 159.267v-2.9h0.995v3.26c-0.041 0.017-0.104 0.036-0.186 0.058-0.083 0.02-0.174 0.03-0.274 0.03v0c-0.174 0-0.307-0.036-0.398-0.107-0.091-0.07-0.137-0.183-0.137-0.341zM111.558 154.302v2.551h-0.995v-2.924c0.041-0.017 0.106-0.036 0.194-0.058 0.086-0.02 0.179-0.03 0.279-0.03v0c0.174 0 0.305 0.035 0.393 0.105 0.086 0.071 0.129 0.19 0.129 0.356zM113.512 158.147v-1.78h0.995v1.718c0 0.332 0.095 0.566 0.286 0.701 0.191 0.138 0.452 0.207 0.784 0.207v0c0.141 0 0.299-0.025 0.473-0.075 0.174-0.05 0.319-0.108 0.436-0.174v0c0.05 0.05 0.095 0.112 0.136 0.187 0.041 0.075 0.062 0.162 0.063 0.261v0c0 0.182-0.108 0.332-0.324 0.448-0.216 0.116-0.514 0.174-0.896 0.174v0c-0.581 0-1.051-0.129-1.411-0.386-0.362-0.257-0.543-0.684-0.542-1.281zM116.287 154.849h-2.265v-0.821h2.526c0.025 0.033 0.05 0.087 0.074 0.162 0.025 0.075 0.037 0.153 0.038 0.236v0c0 0.133-0.033 0.236-0.1 0.311-0.066 0.075-0.158 0.112-0.273 0.112zM114.507 152.597v4.144h-0.995v-4.505c0.041-0.017 0.106-0.036 0.194-0.057 0.086-0.02 0.179-0.03 0.279-0.03v0c0.174 0 0.305 0.035 0.393 0.105 0.086 0.071 0.129 0.186 0.129 0.343zM122.67 156.828l-4.181 0.585-0.05-0.784 3.758-0.51c-0.033-0.456-0.191-0.832-0.473-1.128-0.282-0.294-0.672-0.44-1.169-0.44v0c-0.514 0-0.939 0.184-1.275 0.552-0.337 0.37-0.505 0.899-0.505 1.588v0 0.274c0.058 0.664 0.276 1.167 0.655 1.51 0.377 0.345 0.893 0.518 1.548 0.518v0c0.348 0 0.664-0.058 0.945-0.174 0.282-0.116 0.506-0.241 0.672-0.374v0c0.091 0.058 0.164 0.126 0.219 0.204 0.053 0.08 0.08 0.169 0.08 0.269v0c0 0.158-0.089 0.304-0.266 0.441-0.179 0.138-0.416 0.248-0.71 0.331-0.295 0.083-0.625 0.124-0.99 0.124v0c-0.639 0-1.192-0.116-1.66-0.348-0.47-0.232-0.83-0.579-1.083-1.041-0.254-0.46-0.381-1.021-0.38-1.684v0c0-0.473 0.069-0.894 0.206-1.265 0.136-0.368 0.327-0.681 0.573-0.938 0.244-0.257 0.536-0.455 0.876-0.592 0.34-0.136 0.709-0.204 1.107-0.204v0c0.506 0 0.952 0.108 1.339 0.323 0.385 0.216 0.688 0.517 0.908 0.904 0.219 0.385 0.329 0.826 0.329 1.324v0c0 0.182-0.041 0.313-0.125 0.39-0.083 0.08-0.199 0.128-0.348 0.145zM125.582 154.974v0 1.966h-0.996v-1.892c0-0.191 0.036-0.343 0.107-0.455 0.07-0.111 0.187-0.221 0.353-0.328v0c0.216-0.141 0.51-0.264 0.884-0.369 0.373-0.103 0.788-0.154 1.244-0.154v0c0.664 0 0.995 0.166 0.996 0.498v0c0 0.083-0.012 0.159-0.038 0.229-0.025 0.071-0.058 0.132-0.099 0.181v0c-0.083-0.017-0.191-0.033-0.324-0.05-0.133-0.017-0.265-0.025-0.398-0.024v0c-0.382 0-0.718 0.039-1.008 0.117-0.29 0.08-0.531 0.173-0.721 0.281zM124.586 159.267v-2.9l0.996 0.15v3.11c-0.041 0.017-0.104 0.036-0.187 0.058-0.083 0.02-0.174 0.03-0.274 0.03v0c-0.174 0-0.307-0.036-0.398-0.107-0.091-0.07-0.137-0.183-0.137-0.341zM131.392 159.005v0c0.348 0 0.637-0.036 0.866-0.107 0.227-0.07 0.391-0.138 0.491-0.204v0-1.804l-1.543 0.162c-0.431 0.033-0.751 0.129-0.958 0.286-0.207 0.158-0.311 0.386-0.311 0.684v0c0 0.307 0.123 0.547 0.368 0.722 0.244 0.174 0.606 0.261 1.087 0.261zM131.38 153.742v0c0.722 0 1.294 0.162 1.717 0.485 0.423 0.324 0.635 0.834 0.635 1.531v0 2.949c0 0.182-0.035 0.321-0.105 0.415-0.071 0.096-0.178 0.186-0.318 0.269v0c-0.199 0.108-0.465 0.207-0.797 0.299-0.332 0.091-0.705 0.137-1.12 0.137v0c-0.78 0-1.383-0.153-1.809-0.461-0.428-0.307-0.642-0.751-0.642-1.331v0c0-0.539 0.181-0.952 0.543-1.24 0.36-0.285 0.859-0.457 1.498-0.515v0l1.767-0.174v-0.348c0-0.415-0.124-0.718-0.374-0.909-0.249-0.191-0.585-0.286-1.007-0.286v0c-0.34 0-0.665 0.05-0.976 0.149-0.312 0.1-0.588 0.212-0.829 0.336v0c-0.066-0.058-0.126-0.127-0.179-0.206-0.055-0.078-0.082-0.158-0.082-0.242v0c0-0.216 0.12-0.382 0.361-0.497v0c0.224-0.116 0.484-0.206 0.779-0.269 0.294-0.061 0.606-0.092 0.938-0.092zM138.211 154.576v0c-0.564 0-1.033 0.191-1.406 0.572-0.373 0.382-0.56 0.929-0.56 1.642v0c0 0.705 0.181 1.248 0.543 1.631 0.36 0.382 0.835 0.572 1.423 0.572v0c0.348 0 0.639-0.048 0.871-0.144 0.232-0.095 0.44-0.204 0.622-0.329v0c0.091 0.05 0.166 0.112 0.224 0.187 0.058 0.075 0.087 0.166 0.088 0.273v0c0 0.232-0.172 0.429-0.516 0.59-0.345 0.163-0.775 0.244-1.289 0.244v0c-0.572 0-1.084-0.11-1.535-0.331-0.453-0.219-0.808-0.552-1.065-1-0.257-0.448-0.386-1.012-0.386-1.693v0c0-0.672 0.133-1.234 0.398-1.687 0.265-0.451 0.625-0.791 1.078-1.02 0.451-0.227 0.947-0.341 1.485-0.341v0c0.514 0 0.94 0.087 1.277 0.261 0.335 0.174 0.503 0.373 0.503 0.597v0c0 0.1-0.029 0.187-0.087 0.262-0.058 0.075-0.133 0.133-0.224 0.174v0c-0.182-0.124-0.383-0.232-0.603-0.324-0.221-0.091-0.501-0.137-0.841-0.136zM142.666 158.371v0c-0.141-0.265-0.311-0.624-0.51-1.075-0.199-0.453-0.404-0.96-0.615-1.521-0.212-0.559-0.414-1.129-0.605-1.71v0c0.058-0.083 0.135-0.149 0.232-0.199 0.095-0.05 0.196-0.075 0.303-0.074v0c0.141 0 0.257 0.037 0.349 0.112 0.091 0.075 0.166 0.199 0.224 0.373v0c0.249 0.697 0.51 1.389 0.784 2.078 0.274 0.689 0.577 1.402 0.908 2.14v0h0.05c0.174-0.348 0.357-0.784 0.547-1.306 0.191-0.523 0.373-1.074 0.548-1.655 0.174-0.581 0.319-1.128 0.435-1.643v0c0.058-0.025 0.123-0.048 0.194-0.069 0.07-0.02 0.146-0.03 0.229-0.03v0c0.141 0 0.257 0.035 0.349 0.104 0.091 0.071 0.137 0.178 0.137 0.319v0c0 0.133-0.037 0.354-0.112 0.664-0.075 0.312-0.176 0.673-0.304 1.083-0.129 0.411-0.279 0.847-0.448 1.306-0.171 0.461-0.353 0.913-0.547 1.357-0.196 0.445-0.393 0.845-0.593 1.202v0c-0.382 0.705-0.73 1.247-1.045 1.625-0.315 0.377-0.606 0.565-0.871 0.565v0c-0.191 0-0.338-0.05-0.44-0.15-0.105-0.1-0.169-0.216-0.195-0.348v0c0.182-0.158 0.388-0.367 0.618-0.627 0.227-0.262 0.447-0.544 0.659-0.846 0.211-0.304 0.382-0.592 0.515-0.866v0c-0.141-0.041-0.271-0.116-0.39-0.224-0.121-0.108-0.256-0.303-0.406-0.585zM152.123 159.005v0c0.348 0 0.637-0.036 0.866-0.107 0.227-0.07 0.391-0.138 0.49-0.204v0-1.804l-1.543 0.162c-0.431 0.033-0.751 0.129-0.958 0.286-0.207 0.158-0.311 0.386-0.311 0.684v0c0 0.307 0.123 0.547 0.368 0.722 0.244 0.174 0.606 0.261 1.088 0.261zM152.11 153.742v0c0.722 0 1.294 0.162 1.717 0.485 0.423 0.324 0.635 0.834 0.635 1.531v0 2.949c0 0.182-0.035 0.321-0.105 0.415-0.071 0.096-0.178 0.186-0.318 0.269v0c-0.199 0.108-0.465 0.207-0.796 0.299-0.332 0.091-0.705 0.137-1.12 0.137v0c-0.78 0-1.383-0.153-1.81-0.461-0.428-0.307-0.642-0.751-0.642-1.331v0c0-0.539 0.181-0.952 0.543-1.24 0.36-0.285 0.859-0.457 1.498-0.515v0l1.767-0.174v-0.348c0-0.415-0.124-0.718-0.373-0.909-0.249-0.191-0.585-0.286-1.008-0.286v0c-0.34 0-0.665 0.05-0.976 0.149-0.312 0.1-0.588 0.212-0.828 0.336v0c-0.066-0.058-0.126-0.127-0.18-0.206-0.055-0.078-0.082-0.158-0.082-0.242v0c0-0.216 0.12-0.382 0.361-0.497v0c0.224-0.116 0.484-0.206 0.779-0.269 0.294-0.061 0.606-0.092 0.938-0.092zM161.256 155.857v0 1.269h-0.996v-1.219c0-0.465-0.13-0.805-0.39-1.02-0.262-0.216-0.613-0.324-1.053-0.324v0c-0.332 0-0.626 0.041-0.883 0.125-0.257 0.083-0.477 0.178-0.66 0.286v0 2.152h-0.995v-2.102c0-0.174 0.036-0.318 0.107-0.431 0.07-0.111 0.192-0.221 0.365-0.328v0c0.216-0.124 0.502-0.243 0.859-0.356 0.357-0.111 0.759-0.167 1.207-0.167v0c0.755 0 1.35 0.172 1.787 0.515 0.435 0.345 0.652 0.878 0.652 1.6zM156.279 159.267v-2.825h0.995v3.185c-0.041 0.017-0.104 0.036-0.187 0.058-0.083 0.02-0.174 0.03-0.273 0.03v0c-0.174 0-0.307-0.036-0.399-0.107-0.091-0.07-0.137-0.183-0.136-0.341zM160.26 159.267v-2.825h0.996v3.185c-0.041 0.017-0.105 0.036-0.192 0.058-0.088 0.02-0.178 0.03-0.269 0.03v0c-0.182 0-0.318-0.036-0.405-0.107-0.086-0.07-0.129-0.183-0.13-0.341zM167.042 158.669v0-4.181l0.995-0.012v4.231c0 0.158-0.035 0.285-0.104 0.38-0.071 0.095-0.182 0.187-0.331 0.279v0c-0.166 0.108-0.402 0.21-0.709 0.306-0.307 0.095-0.659 0.142-1.058 0.142v0c-0.597 0-1.124-0.104-1.58-0.311-0.456-0.207-0.813-0.533-1.07-0.978-0.257-0.443-0.386-1.017-0.386-1.722v0c0-0.722 0.127-1.307 0.381-1.755 0.252-0.448 0.594-0.778 1.025-0.99 0.431-0.211 0.904-0.316 1.418-0.316v0c0.324 0 0.63 0.046 0.921 0.137 0.29 0.091 0.518 0.203 0.685 0.336v0 0.921c-0.158-0.158-0.363-0.293-0.618-0.406-0.252-0.111-0.548-0.167-0.888-0.167v0c-0.34 0-0.655 0.072-0.946 0.217-0.29 0.146-0.523 0.385-0.697 0.716-0.174 0.332-0.261 0.776-0.261 1.332v0c0 0.755 0.182 1.304 0.548 1.647 0.365 0.345 0.85 0.518 1.455 0.518v0c0.29 0 0.529-0.032 0.717-0.095 0.186-0.061 0.353-0.138 0.503-0.229zM168.037 151.95v2.775l-0.995 0.012v-3.148c0.041-0.017 0.105-0.036 0.192-0.057 0.088-0.02 0.178-0.03 0.268-0.03v0c0.182 0 0.318 0.035 0.406 0.105 0.086 0.071 0.129 0.186 0.129 0.343zM178.116 152.921v0c0 0.108-0.035 0.205-0.104 0.291-0.071 0.088-0.153 0.153-0.244 0.194v0c-0.207-0.149-0.458-0.29-0.752-0.423-0.295-0.133-0.675-0.199-1.139-0.199v0c-0.506 0-0.96 0.116-1.362 0.348-0.403 0.232-0.723 0.578-0.958 1.038-0.237 0.461-0.356 1.032-0.356 1.712v0c0 1.02 0.251 1.788 0.754 2.302 0.501 0.514 1.154 0.771 1.959 0.772v0c0.431 0 0.809-0.062 1.132-0.187 0.324-0.124 0.589-0.265 0.797-0.423v0c0.083 0.033 0.162 0.093 0.236 0.179 0.075 0.088 0.112 0.19 0.112 0.306v0c0 0.083-0.022 0.163-0.067 0.242-0.046 0.08-0.124 0.157-0.232 0.231v0c-0.191 0.133-0.452 0.251-0.784 0.356-0.332 0.103-0.755 0.154-1.269 0.154v0c-0.689 0-1.312-0.148-1.871-0.443-0.561-0.294-1.003-0.731-1.327-1.311-0.324-0.581-0.485-1.307-0.485-2.178v0c0-0.871 0.168-1.601 0.505-2.19 0.335-0.589 0.779-1.031 1.332-1.326 0.551-0.294 1.154-0.44 1.809-0.441v0c0.456 0 0.859 0.05 1.207 0.15 0.348 0.1 0.621 0.226 0.816 0.378 0.194 0.154 0.291 0.31 0.291 0.468zM185.072 156.778v0c0 0.614-0.116 1.149-0.348 1.605-0.232 0.456-0.56 0.809-0.983 1.058-0.423 0.249-0.921 0.373-1.494 0.373v0c-0.572 0-1.072-0.124-1.498-0.373-0.428-0.249-0.758-0.601-0.99-1.058-0.232-0.456-0.348-0.991-0.349-1.605v0c0-0.622 0.119-1.16 0.356-1.613 0.236-0.451 0.567-0.801 0.993-1.05 0.428-0.249 0.924-0.373 1.488-0.373v0c0.564 0 1.058 0.124 1.481 0.373 0.423 0.249 0.753 0.599 0.991 1.05 0.236 0.453 0.353 0.99 0.353 1.613zM182.247 154.563v0c-0.556 0-0.997 0.197-1.324 0.592-0.329 0.393-0.493 0.934-0.492 1.623v0c0 0.697 0.159 1.24 0.477 1.63 0.32 0.39 0.766 0.585 1.339 0.585v0c0.564 0 1.006-0.197 1.327-0.592 0.319-0.393 0.478-0.934 0.478-1.623v0c0-0.689-0.159-1.229-0.478-1.623-0.32-0.395-0.762-0.592-1.327-0.592zM191.592 155.857v0 1.269h-0.995v-1.219c0-0.465-0.13-0.805-0.391-1.02-0.262-0.216-0.613-0.324-1.053-0.324v0c-0.332 0-0.626 0.041-0.883 0.125-0.257 0.083-0.477 0.178-0.66 0.286v0 2.152h-0.995v-2.102c0-0.174 0.036-0.318 0.107-0.431 0.07-0.111 0.192-0.221 0.366-0.328v0c0.216-0.124 0.502-0.243 0.858-0.356 0.357-0.111 0.759-0.167 1.207-0.167v0c0.755 0 1.35 0.172 1.787 0.515 0.435 0.345 0.652 0.878 0.652 1.6zM186.615 159.267v-2.825h0.995v3.185c-0.041 0.017-0.104 0.036-0.186 0.058-0.083 0.02-0.174 0.03-0.274 0.03v0c-0.174 0-0.307-0.036-0.398-0.107-0.091-0.07-0.137-0.183-0.137-0.341zM190.597 159.267v-2.825h0.995v3.185c-0.041 0.017-0.105 0.036-0.191 0.058-0.088 0.02-0.178 0.03-0.269 0.03v0c-0.182 0-0.317-0.036-0.403-0.107-0.088-0.07-0.132-0.183-0.132-0.341zM197.515 158.122v0c0 0.531-0.195 0.946-0.585 1.244-0.39 0.299-0.954 0.448-1.692 0.448v0c-0.63 0-1.145-0.098-1.543-0.294-0.398-0.194-0.597-0.407-0.597-0.639v0c0-0.1 0.027-0.197 0.082-0.294 0.053-0.095 0.134-0.171 0.241-0.229v0c0.224 0.158 0.485 0.303 0.784 0.436 0.299 0.133 0.639 0.199 1.021 0.199v0c0.863 0 1.294-0.29 1.294-0.871v0c0-0.241-0.072-0.438-0.217-0.592-0.146-0.153-0.36-0.262-0.642-0.329v0l-1.033-0.274c-0.506-0.124-0.875-0.318-1.107-0.58-0.232-0.26-0.348-0.586-0.349-0.975v0c0-0.44 0.178-0.821 0.535-1.145 0.357-0.324 0.9-0.485 1.631-0.485v0c0.39 0 0.73 0.039 1.02 0.117 0.29 0.08 0.517 0.183 0.679 0.311 0.161 0.129 0.241 0.269 0.242 0.418v0c0 0.108-0.027 0.203-0.08 0.286-0.055 0.083-0.128 0.145-0.219 0.187v0c-0.1-0.066-0.226-0.139-0.378-0.219-0.154-0.078-0.335-0.144-0.543-0.199-0.207-0.053-0.436-0.08-0.684-0.08v0c-0.365 0-0.659 0.071-0.884 0.212-0.224 0.141-0.336 0.34-0.336 0.597v0c0 0.182 0.065 0.342 0.195 0.478 0.128 0.138 0.333 0.24 0.614 0.306v0l0.859 0.211c0.564 0.133 0.987 0.342 1.269 0.627 0.282 0.287 0.423 0.663 0.423 1.128zM199.021 157.549v0-1.132h0.995v1.083c0 0.531 0.141 0.912 0.423 1.144 0.282 0.232 0.672 0.348 1.17 0.349v0c0.332 0 0.614-0.036 0.846-0.107 0.232-0.07 0.415-0.142 0.547-0.217v0-2.252h0.996v2.215c0 0.174-0.022 0.313-0.067 0.416-0.046 0.105-0.157 0.207-0.331 0.306v0c-0.182 0.108-0.444 0.212-0.784 0.311-0.34 0.1-0.747 0.149-1.22 0.149v0c-0.547 0-1.014-0.081-1.398-0.244-0.387-0.161-0.679-0.41-0.879-0.746-0.199-0.335-0.299-0.76-0.298-1.275zM203.998 154.302v2.762h-0.996v-3.135c0.041-0.017 0.106-0.036 0.195-0.058 0.086-0.02 0.175-0.03 0.266-0.03v0c0.182 0 0.318 0.035 0.405 0.105 0.086 0.071 0.129 0.19 0.13 0.356zM200.016 154.302v2.762h-0.995v-3.135c0.041-0.017 0.106-0.036 0.194-0.058 0.086-0.02 0.179-0.03 0.279-0.03v0c0.174 0 0.305 0.035 0.393 0.105 0.086 0.071 0.129 0.19 0.129 0.356zM205.964 159.267v-2.9l0.995 0.15v3.11c-0.041 0.017-0.104 0.036-0.186 0.058-0.083 0.02-0.174 0.03-0.274 0.03v0c-0.174 0-0.307-0.036-0.398-0.107-0.091-0.07-0.137-0.183-0.137-0.341zM206.959 151.95v5.04l-0.995-0.137v-5.264c0.041-0.017 0.106-0.036 0.194-0.057 0.086-0.02 0.175-0.03 0.266-0.03v0c0.182 0 0.318 0.035 0.406 0.105 0.086 0.071 0.129 0.186 0.129 0.343zM208.938 158.147v-1.78h0.995v1.718c0 0.332 0.095 0.566 0.286 0.701 0.191 0.138 0.452 0.207 0.784 0.207v0c0.141 0 0.299-0.025 0.473-0.075 0.174-0.05 0.319-0.108 0.436-0.174v0c0.05 0.05 0.095 0.112 0.137 0.187 0.041 0.075 0.062 0.162 0.062 0.261v0c0 0.182-0.108 0.332-0.324 0.448-0.216 0.116-0.514 0.174-0.896 0.174v0c-0.581 0-1.051-0.129-1.411-0.386-0.362-0.257-0.543-0.684-0.542-1.281zM211.713 154.849h-2.265v-0.821h2.526c0.025 0.033 0.05 0.087 0.075 0.162 0.025 0.075 0.037 0.153 0.037 0.236v0c0 0.133-0.033 0.236-0.1 0.311-0.066 0.075-0.158 0.112-0.273 0.112zM209.933 152.597v4.144h-0.995v-4.505c0.041-0.017 0.106-0.036 0.194-0.057 0.086-0.02 0.179-0.03 0.279-0.03v0c0.174 0 0.305 0.035 0.393 0.105 0.086 0.071 0.129 0.186 0.129 0.343zM215.607 159.005v0c0.348 0 0.637-0.036 0.866-0.107 0.227-0.07 0.391-0.138 0.491-0.204v0-1.804l-1.543 0.162c-0.431 0.033-0.751 0.129-0.958 0.286-0.207 0.158-0.311 0.386-0.312 0.684v0c0 0.307 0.123 0.547 0.369 0.722 0.244 0.174 0.606 0.261 1.087 0.261zM215.595 153.742v0c0.722 0 1.294 0.162 1.717 0.485 0.423 0.324 0.635 0.834 0.635 1.531v0 2.949c0 0.182-0.035 0.321-0.105 0.415-0.071 0.096-0.178 0.186-0.318 0.269v0c-0.199 0.108-0.465 0.207-0.797 0.299-0.332 0.091-0.705 0.137-1.12 0.137v0c-0.78 0-1.383-0.153-1.809-0.461-0.428-0.307-0.642-0.751-0.642-1.331v0c0-0.539 0.181-0.952 0.543-1.24 0.36-0.285 0.859-0.457 1.498-0.515v0l1.767-0.174v-0.348c0-0.415-0.124-0.718-0.374-0.909-0.249-0.191-0.585-0.286-1.008-0.286v0c-0.34 0-0.665 0.05-0.975 0.149-0.312 0.1-0.588 0.212-0.829 0.336v0c-0.066-0.058-0.126-0.127-0.179-0.206-0.055-0.078-0.082-0.158-0.082-0.242v0c0-0.216 0.12-0.382 0.361-0.497v0c0.224-0.116 0.484-0.206 0.779-0.269 0.294-0.061 0.606-0.092 0.938-0.092zM219.776 158.147v-1.78h0.995v1.718c0 0.332 0.095 0.566 0.286 0.701 0.191 0.138 0.452 0.207 0.784 0.207v0c0.141 0 0.299-0.025 0.473-0.075 0.174-0.05 0.319-0.108 0.436-0.174v0c0.05 0.05 0.095 0.112 0.137 0.187 0.041 0.075 0.062 0.162 0.062 0.261v0c0 0.182-0.108 0.332-0.324 0.448-0.216 0.116-0.514 0.174-0.896 0.174v0c-0.581 0-1.051-0.129-1.411-0.386-0.362-0.257-0.543-0.684-0.542-1.281zM222.551 154.849h-2.265v-0.821h2.526c0.025 0.033 0.05 0.087 0.075 0.162 0.025 0.075 0.037 0.153 0.037 0.236v0c0 0.133-0.033 0.236-0.1 0.311-0.066 0.075-0.158 0.112-0.273 0.112zM220.771 152.597v4.144h-0.995v-4.505c0.041-0.017 0.106-0.036 0.194-0.057 0.086-0.02 0.179-0.03 0.279-0.03v0c0.174 0 0.305 0.035 0.393 0.105 0.086 0.071 0.129 0.186 0.129 0.343zM224.305 152.087v0c0-0.174 0.062-0.322 0.187-0.443 0.124-0.119 0.278-0.179 0.46-0.179v0c0.191 0 0.344 0.06 0.46 0.179 0.116 0.121 0.174 0.269 0.175 0.443v0c0 0.174-0.058 0.321-0.175 0.44-0.116 0.121-0.27 0.182-0.46 0.182v0c-0.182 0-0.336-0.061-0.46-0.182-0.124-0.119-0.187-0.266-0.187-0.44zM224.454 159.267v-2.9h0.996v3.26c-0.041 0.017-0.104 0.036-0.187 0.058-0.083 0.02-0.174 0.03-0.274 0.03v0c-0.174 0-0.307-0.036-0.398-0.107-0.091-0.07-0.137-0.183-0.137-0.341zM225.45 154.302v2.551h-0.996v-2.924c0.041-0.017 0.106-0.036 0.194-0.058 0.086-0.02 0.179-0.03 0.279-0.03v0c0.174 0 0.305 0.035 0.393 0.105 0.086 0.071 0.129 0.19 0.13 0.356zM232.729 156.778v0c0 0.614-0.116 1.149-0.348 1.605-0.232 0.456-0.56 0.809-0.983 1.058-0.423 0.249-0.921 0.373-1.494 0.373v0c-0.572 0-1.072-0.124-1.498-0.373-0.428-0.249-0.758-0.601-0.99-1.058-0.232-0.456-0.348-0.991-0.349-1.605v0c0-0.622 0.119-1.16 0.356-1.613 0.236-0.451 0.567-0.801 0.996-1.05 0.426-0.249 0.922-0.373 1.485-0.373v0c0.564 0 1.058 0.124 1.481 0.373 0.423 0.249 0.753 0.599 0.991 1.05 0.236 0.453 0.353 0.99 0.353 1.613zM229.904 154.563v0c-0.556 0-0.997 0.197-1.324 0.592-0.329 0.393-0.493 0.934-0.492 1.623v0c0 0.697 0.16 1.24 0.48 1.63 0.319 0.39 0.764 0.585 1.336 0.585v0c0.564 0 1.006-0.197 1.327-0.592 0.319-0.393 0.478-0.934 0.478-1.623v0c0-0.689-0.159-1.229-0.478-1.623-0.32-0.395-0.762-0.592-1.327-0.592zM239.249 155.857v0 1.269h-0.995v-1.219c0-0.465-0.13-0.805-0.391-1.02-0.262-0.216-0.613-0.324-1.053-0.324v0c-0.332 0-0.626 0.041-0.883 0.125-0.257 0.083-0.477 0.178-0.66 0.286v0 2.152h-0.995v-2.102c0-0.174 0.036-0.318 0.107-0.431 0.07-0.111 0.192-0.221 0.366-0.328v0c0.216-0.124 0.502-0.243 0.858-0.356 0.357-0.111 0.759-0.167 1.207-0.167v0c0.755 0 1.35 0.172 1.787 0.515 0.435 0.345 0.652 0.878 0.652 1.6zM234.272 159.267v-2.825h0.995v3.185c-0.041 0.017-0.104 0.036-0.186 0.058-0.083 0.02-0.174 0.03-0.274 0.03v0c-0.174 0-0.307-0.036-0.398-0.107-0.091-0.07-0.137-0.183-0.137-0.341zM238.254 159.267v-2.825h0.995v3.185c-0.041 0.017-0.105 0.036-0.191 0.058-0.088 0.02-0.178 0.03-0.269 0.03v0c-0.182 0-0.317-0.036-0.403-0.107-0.088-0.07-0.132-0.183-0.132-0.341z" fill="#000000" fill-rule="nonzero" stroke="none" stroke-width="1" stroke-linecap="butt" stroke-linejoin="miter" stroke-miterlimit="10" stroke-dasharray="" stroke-dashoffset="0" font-family="none" font-weight="none" font-size="none" text-anchor="none" style="mix-blend-mode: normal" data-fill-palette-color="secondary" id="text-1"></path></g></g><g transform="matrix(1,0,0,1,29.33176499999999,23.528727849387145)"><svg viewBox="0 0 316.416 25.611034301225633" height="25.611034301225633" width="316.416"><g><svg viewBox="0 0 316.416 25.611034301225633" height="25.611034301225633" width="316.416"><g><svg viewBox="0 0 316.416 25.611034301225633" height="25.611034301225633" width="316.416"><g><svg viewBox="0 0 316.416 25.611034301225633" height="25.611034301225633" width="316.416"><g id="textblocktransform"><svg viewBox="0 0 316.416 25.611034301225633" height="25.611034301225633" width="316.416" id="textblock"><g><svg viewBox="0 0 316.416 25.611034301225633" height="25.611034301225633" width="316.416"><g transform="matrix(1,0,0,1,0,0)"><svg width="316.416" viewBox="0.5 -37.6 607.79 49.2" height="25.611034301225633" data-palette-color="#046691"><path d="M17.4 0L12.65 0 12.65-13.3 0.5-33.05 4.5-35.45 15.2-17.7 25.7-35.25 29.45-33.05 17.4-13.3 17.4 0ZM41.65 0.6L41.65 0.6Q37.95 0.6 35-1.13 32.05-2.85 30.37-5.93 28.7-9 28.7-13L28.7-13Q28.7-17.2 30.4-20.25 32.1-23.3 35.05-24.95 38-26.6 41.65-26.6L41.65-26.6Q45.3-26.6 48.22-24.95 51.15-23.3 52.87-20.28 54.6-17.25 54.6-13.1L54.6-13.1Q54.6-8.95 52.9-5.88 51.2-2.8 48.27-1.1 45.35 0.6 41.65 0.6ZM41.65-3.4L41.65-3.4Q45.6-3.4 47.8-6.08 50-8.75 50-13L50-13Q50-15.6 48.9-17.78 47.8-19.95 45.92-21.28 44.05-22.6 41.65-22.6L41.65-22.6Q37.7-22.6 35.5-20 33.3-17.4 33.3-13.1L33.3-13.1Q33.3-10.5 34.4-8.28 35.5-6.05 37.37-4.73 39.25-3.4 41.65-3.4ZM69.09 0.6L69.09 0.6Q66.84 0.6 64.84-0.35 62.85-1.3 61.6-3.43 60.35-5.55 60.35-9.1L60.35-9.1 60.35-26 64.84-26 64.84-9.7Q64.84-6.65 66.15-5.03 67.45-3.4 69.95-3.4L69.95-3.4Q72-3.4 73.92-4.23 75.84-5.05 77.34-6.45L77.34-6.45 77.34-26 81.84-26 81.84-6.75Q81.84-4.6 82.77-3.93 83.7-3.25 84.8-3.25L84.8-3.25 83.84 0.25Q79.2 0.25 78.09-3.45L78.09-3.45Q76.34-1.65 74.05-0.53 71.75 0.6 69.09 0.6ZM95.29 0L90.79 0 90.79-26 95.14-26 95.14-20.35Q95.79-22 96.89-23.43 97.99-24.85 99.64-25.73 101.29-26.6 103.49-26.6L103.49-26.6Q104.24-26.6 104.99-26.53 105.74-26.45 106.24-26.3L106.24-26.3 104.89-21.65Q103.94-22.05 102.64-22.05L102.64-22.05Q100.79-22.05 99.12-21 97.44-19.95 96.37-17.75 95.29-15.55 95.29-12.15L95.29-12.15 95.29 0ZM131.19 11L126.69 11 126.69-19.35Q126.69-21.05 125.86-21.78 125.04-22.5 123.74-22.5L123.74-22.5 124.69-26Q129.29-26 130.44-22.35L130.44-22.35Q130.94-23.1 132.06-24.1 133.19-25.1 134.86-25.85 136.54-26.6 138.69-26.6L138.69-26.6Q141.69-26.6 144.31-25.03 146.94-23.45 148.54-20.48 150.14-17.5 150.14-13.25L150.14-13.25Q150.14-9.1 148.54-5.98 146.94-2.85 144.36-1.13 141.79 0.6 138.79 0.6L138.79 0.6Q136.49 0.6 134.49-0.33 132.49-1.25 131.19-2.45L131.19-2.45 131.19 11ZM137.89-3.4L137.89-3.4Q141.29-3.4 143.41-6.08 145.54-8.75 145.54-13.1L145.54-13.1Q145.54-16.1 144.46-18.25 143.39-20.4 141.61-21.55 139.84-22.7 137.69-22.7L137.69-22.7Q135.54-22.7 133.81-21.63 132.09-20.55 131.19-19.3L131.19-19.3 131.19-6.5Q132.49-5.15 134.19-4.28 135.89-3.4 137.89-3.4ZM166.79 0.6L166.79 0.6Q161.19 0.6 157.91-2.98 154.64-6.55 154.64-13L154.64-13Q154.64-16.9 156.11-19.98 157.59-23.05 160.24-24.83 162.89-26.6 166.39-26.6L166.39-26.6Q170.14-26.6 172.61-24.98 175.09-23.35 176.34-20.6 177.59-17.85 177.59-14.55L177.59-14.55Q177.59-12.8 177.44-11.15L177.44-11.15 159.24-11.15Q159.69-7.5 161.79-5.45 163.89-3.4 167.34-3.4L167.34-3.4Q169.59-3.4 171.39-3.88 173.19-4.35 174.84-5.1L174.84-5.1 175.89-1.25Q174.09-0.45 171.84 0.08 169.59 0.6 166.79 0.6ZM159.19-14.8L159.19-14.8 173.44-14.8Q173.44-18.6 171.54-20.65 169.64-22.7 166.29-22.7L166.29-22.7Q163.39-22.7 161.49-20.68 159.59-18.65 159.19-14.8ZM188.08 0L183.58 0 183.58-26 187.93-26 187.93-20.35Q188.58-22 189.68-23.43 190.78-24.85 192.43-25.73 194.08-26.6 196.28-26.6L196.28-26.6Q197.03-26.6 197.78-26.53 198.53-26.45 199.03-26.3L199.03-26.3 197.68-21.65Q196.73-22.05 195.43-22.05L195.43-22.05Q193.58-22.05 191.91-21 190.23-19.95 189.16-17.75 188.08-15.55 188.08-12.15L188.08-12.15 188.08 0ZM209.28 0.6L209.28 0.6Q206.33 0.6 203.96-0.15 201.58-0.9 200.03-2.1L200.03-2.1 201.93-5.85Q203.23-4.75 205.21-4.03 207.18-3.3 209.43-3.3L209.43-3.3Q212.23-3.3 213.66-4.23 215.08-5.15 215.08-6.6L215.08-6.6Q215.08-7.65 214.56-8.45 214.03-9.25 212.63-10.03 211.23-10.8 208.58-11.7L208.58-11.7Q204.93-12.95 203.11-14.68 201.28-16.4 201.28-19.45L201.28-19.45Q201.28-22.45 203.91-24.53 206.53-26.6 211.18-26.6L211.18-26.6Q213.68-26.6 215.63-26.08 217.58-25.55 219.13-24.75L219.13-24.75 217.88-21.05Q216.53-21.85 214.81-22.35 213.08-22.85 210.98-22.85L210.98-22.85Q208.38-22.85 207.03-21.8 205.68-20.75 205.68-19.5L205.68-19.5Q205.68-18.3 206.73-17.45 207.78-16.6 210.83-15.6L210.83-15.6Q215.78-13.95 217.73-11.95 219.68-9.95 219.68-6.95L219.68-6.95Q219.68-3.45 216.86-1.43 214.03 0.6 209.28 0.6ZM236.63 0.6L236.63 0.6Q232.93 0.6 229.98-1.13 227.03-2.85 225.35-5.93 223.68-9 223.68-13L223.68-13Q223.68-17.2 225.38-20.25 227.08-23.3 230.03-24.95 232.98-26.6 236.63-26.6L236.63-26.6Q240.28-26.6 243.2-24.95 246.13-23.3 247.85-20.28 249.58-17.25 249.58-13.1L249.58-13.1Q249.58-8.95 247.88-5.88 246.18-2.8 243.25-1.1 240.33 0.6 236.63 0.6ZM236.63-3.4L236.63-3.4Q240.58-3.4 242.78-6.08 244.98-8.75 244.98-13L244.98-13Q244.98-15.6 243.88-17.78 242.78-19.95 240.9-21.28 239.03-22.6 236.63-22.6L236.63-22.6Q232.68-22.6 230.48-20 228.28-17.4 228.28-13.1L228.28-13.1Q228.28-10.5 229.38-8.28 230.48-6.05 232.35-4.73 234.23-3.4 236.63-3.4ZM260.08 0L255.58 0 255.58-26 259.93-26 259.93-21.65Q261.33-23.75 263.5-25.18 265.68-26.6 268.68-26.6L268.68-26.6Q273.08-26.6 275.25-23.95 277.43-21.3 277.43-16.95L277.43-16.95 277.43 0 272.93 0 272.93-16.45Q272.93-19.25 271.6-20.95 270.28-22.65 267.93-22.65L267.93-22.65Q265.63-22.65 263.58-21.03 261.53-19.4 260.08-17.2L260.08-17.2 260.08 0ZM295.12 0.6L295.12 0.6Q291.87 0.6 289.22-1.05 286.57-2.7 285-5.73 283.42-8.75 283.42-12.85L283.42-12.85Q283.42-16.75 285-19.85 286.57-22.95 289.35-24.78 292.12-26.6 295.72-26.6L295.72-26.6Q297.97-26.6 299.8-25.83 301.62-25.05 302.97-23.9L302.97-23.9 302.97-26 307.07-26 307.07-6.3Q307.07-4.4 308-3.83 308.92-3.25 310.02-3.25L310.02-3.25 309.07 0.25Q304.27 0.25 303.27-3.65L303.27-3.65Q302.12-2.05 300.15-0.73 298.17 0.6 295.12 0.6ZM296.12-3.4L296.12-3.4Q298.02-3.4 299.72-4.33 301.42-5.25 302.57-6.65L302.57-6.65 302.57-20.6Q301.22-21.55 299.6-22.13 297.97-22.7 296.17-22.7L296.17-22.7Q293.77-22.7 291.95-21.48 290.12-20.25 289.07-18.07 288.02-15.9 288.02-13L288.02-13Q288.02-10.2 289.07-8.03 290.12-5.85 291.97-4.63 293.82-3.4 296.12-3.4ZM323.92 0.6L323.92 0.6Q321.62 0.6 319.77-0.28 317.92-1.15 316.85-3.1 315.77-5.05 315.77-8.15L315.77-8.15 315.77-37 320.27-37 320.27-8.6Q320.27-5.9 321.4-4.6 322.52-3.3 324.52-3.3L324.52-3.3Q325.47-3.3 326.4-3.53 327.32-3.75 327.97-4.05L327.97-4.05 329.07-0.4Q328.17 0 326.85 0.3 325.52 0.6 323.92 0.6ZM353.32 0L348.82 0 348.82-21.15 344.82-21.15 344.82-25.05 348.82-25.05 348.82-28.1Q348.82-32.5 351.27-35.05 353.72-37.6 357.67-37.6L357.67-37.6Q359.72-37.6 361.27-37.13 362.82-36.65 364.22-35.95L364.22-35.95 362.87-32.15Q361.82-32.7 360.62-33.15 359.42-33.6 357.97-33.6L357.97-33.6Q355.87-33.6 354.59-32.27 353.32-30.95 353.32-28.4L353.32-28.4 353.32-25.05 361.02-25.05 361.02-21.15 353.32-21.15 353.32 0ZM370.21 0L365.71 0 365.71-26 370.21-26 370.21 0ZM367.96-30.45L367.96-30.45Q366.66-30.45 365.74-31.4 364.81-32.35 364.81-33.6L364.81-33.6Q364.81-35.05 365.66-35.9 366.51-36.75 367.96-36.75L367.96-36.75Q369.26-36.75 370.19-35.83 371.11-34.9 371.11-33.6L371.11-33.6Q371.11-32.2 370.26-31.33 369.41-30.45 367.96-30.45ZM382.71 0L378.21 0 378.21-26 382.56-26 382.56-21.65Q383.96-23.75 386.14-25.18 388.31-26.6 391.31-26.6L391.31-26.6Q395.71-26.6 397.89-23.95 400.06-21.3 400.06-16.95L400.06-16.95 400.06 0 395.56 0 395.56-16.45Q395.56-19.25 394.24-20.95 392.91-22.65 390.56-22.65L390.56-22.65Q388.26-22.65 386.21-21.03 384.16-19.4 382.71-17.2L382.71-17.2 382.71 0ZM417.76 0.6L417.76 0.6Q414.51 0.6 411.86-1.05 409.21-2.7 407.63-5.73 406.06-8.75 406.06-12.85L406.06-12.85Q406.06-16.75 407.63-19.85 409.21-22.95 411.98-24.78 414.76-26.6 418.36-26.6L418.36-26.6Q420.61-26.6 422.43-25.83 424.26-25.05 425.61-23.9L425.61-23.9 425.61-26 429.71-26 429.71-6.3Q429.71-4.4 430.63-3.83 431.56-3.25 432.66-3.25L432.66-3.25 431.71 0.25Q426.91 0.25 425.91-3.65L425.91-3.65Q424.76-2.05 422.78-0.73 420.81 0.6 417.76 0.6ZM418.76-3.4L418.76-3.4Q420.66-3.4 422.36-4.33 424.06-5.25 425.21-6.65L425.21-6.65 425.21-20.6Q423.86-21.55 422.23-22.13 420.61-22.7 418.81-22.7L418.81-22.7Q416.41-22.7 414.58-21.48 412.76-20.25 411.71-18.07 410.66-15.9 410.66-13L410.66-13Q410.66-10.2 411.71-8.03 412.76-5.85 414.61-4.63 416.46-3.4 418.76-3.4ZM443.16 0L438.66 0 438.66-26 443.01-26 443.01-21.65Q444.41-23.75 446.58-25.18 448.76-26.6 451.76-26.6L451.76-26.6Q456.16-26.6 458.33-23.95 460.51-21.3 460.51-16.95L460.51-16.95 460.51 0 456.01 0 456.01-16.45Q456.01-19.25 454.68-20.95 453.36-22.65 451.01-22.65L451.01-22.65Q448.71-22.65 446.66-21.03 444.61-19.4 443.16-17.2L443.16-17.2 443.16 0ZM478.75 0.6L478.75 0.6Q475.05 0.6 472.28-1.13 469.5-2.85 468-5.93 466.5-9 466.5-13L466.5-13Q466.5-16.75 468.03-19.85 469.55-22.95 472.4-24.78 475.25-26.6 479.1-26.6L479.1-26.6Q481.3-26.6 482.98-26.2 484.65-25.8 486.2-25.05L486.2-25.05 484.85-21.25Q483.45-21.95 482.18-22.28 480.9-22.6 479.35-22.6L479.35-22.6Q475.85-22.6 473.48-20.08 471.1-17.55 471.1-13.1L471.1-13.1Q471.1-10.4 472.1-8.2 473.1-6 474.88-4.7 476.65-3.4 479.05-3.4L479.05-3.4Q480.95-3.4 482.3-3.83 483.65-4.25 485.2-5.05L485.2-5.05 486.6-1.25Q485.05-0.4 483.13 0.1 481.2 0.6 478.75 0.6ZM501.75 0.6L501.75 0.6Q496.15 0.6 492.88-2.98 489.6-6.55 489.6-13L489.6-13Q489.6-16.9 491.08-19.98 492.55-23.05 495.2-24.83 497.85-26.6 501.35-26.6L501.35-26.6Q505.1-26.6 507.58-24.98 510.05-23.35 511.3-20.6 512.55-17.85 512.55-14.55L512.55-14.55Q512.55-12.8 512.4-11.15L512.4-11.15 494.2-11.15Q494.65-7.5 496.75-5.45 498.85-3.4 502.3-3.4L502.3-3.4Q504.55-3.4 506.35-3.88 508.15-4.35 509.8-5.1L509.8-5.1 510.85-1.25Q509.05-0.45 506.8 0.08 504.55 0.6 501.75 0.6ZM494.15-14.8L494.15-14.8 508.4-14.8Q508.4-18.6 506.5-20.65 504.6-22.7 501.25-22.7L501.25-22.7Q498.35-22.7 496.45-20.68 494.55-18.65 494.15-14.8ZM543.1 11.6L543.1 11.6Q540.8 11.6 538.62 11.05 536.45 10.5 534.75 9.4L534.75 9.4 536.4 5.5Q537.6 6.45 539.2 7.08 540.8 7.7 543.1 7.7L543.1 7.7Q546.65 7.7 548.67 5.83 550.7 3.95 550.7-0.15L550.7-0.15 550.7-3.35Q549.7-2.15 547.82-1.07 545.95 0 543.35 0L543.35 0Q540.4 0 537.75-1.53 535.1-3.05 533.45-6 531.8-8.95 531.8-13.1L531.8-13.1Q531.8-17 533.42-20.05 535.05-23.1 537.8-24.85 540.55-26.6 543.85-26.6L543.85-26.6Q546.05-26.6 547.85-25.85 549.65-25.1 550.95-24L550.95-24 550.95-26 555.05-26 555.05-0.6Q555.05 3.7 553.55 6.4 552.05 9.1 549.37 10.35 546.7 11.6 543.1 11.6ZM544.35-4L544.35-4Q546.35-4 547.95-4.9 549.55-5.8 550.55-7L550.55-7 550.55-20.6Q549.45-21.4 547.9-22.05 546.35-22.7 544.3-22.7L544.3-22.7Q542.25-22.7 540.45-21.6 538.65-20.5 537.52-18.43 536.4-16.35 536.4-13.35L536.4-13.35Q536.4-10.5 537.52-8.4 538.65-6.3 540.45-5.15 542.25-4 544.35-4ZM567.29 0L562.79 0 562.79-26 567.29-26 567.29 0ZM565.04-30.45L565.04-30.45Q563.74-30.45 562.82-31.4 561.89-32.35 561.89-33.6L561.89-33.6Q561.89-35.05 562.74-35.9 563.59-36.75 565.04-36.75L565.04-36.75Q566.34-36.75 567.27-35.83 568.19-34.9 568.19-33.6L568.19-33.6Q568.19-32.2 567.34-31.33 566.49-30.45 565.04-30.45ZM579.79 0L575.29 0 575.29-26 579.64-26 579.64-20.35Q580.29-22 581.39-23.43 582.49-24.85 584.14-25.73 585.79-26.6 587.99-26.6L587.99-26.6Q588.74-26.6 589.49-26.53 590.24-26.45 590.74-26.3L590.74-26.3 589.39-21.65Q588.44-22.05 587.14-22.05L587.14-22.05Q585.29-22.05 583.62-21 581.94-19.95 580.87-17.75 579.79-15.55 579.79-12.15L579.79-12.15 579.79 0ZM603.14 0.6L603.14 0.6Q600.84 0.6 598.99-0.28 597.14-1.15 596.06-3.1 594.99-5.05 594.99-8.15L594.99-8.15 594.99-37 599.49-37 599.49-8.6Q599.49-5.9 600.61-4.6 601.74-3.3 603.74-3.3L603.74-3.3Q604.69-3.3 605.61-3.53 606.54-3.75 607.19-4.05L607.19-4.05 608.29-0.4Q607.39 0 606.06 0.3 604.74 0.6 603.14 0.6Z" opacity="1" transform="matrix(1,0,0,1,0,0)" fill="#000000" class="wordmark-text-0" data-fill-palette-color="primary" id="text-0"></path></svg></g></svg></g></svg></g></svg></g></svg></g></svg></g></svg></g></svg></g><defs></defs></svg><rect width="375.07953" height="72.66848999999992" fill="none" stroke="none" visibility="hidden"></rect></g></svg></g></svg>